%FSLAX23Y23*%
%MOIN*%
G70*
G01*
G75*
%ADD10R,0.063X0.071*%
%ADD11R,0.028X0.035*%
%ADD12R,0.047X0.013*%
%ADD13R,0.071X0.063*%
%ADD14R,0.022X0.057*%
%ADD15R,0.022X0.057*%
%ADD16R,0.315X0.138*%
%ADD17R,0.079X0.012*%
%ADD18R,0.130X0.060*%
%ADD19O,0.028X0.098*%
%ADD20R,0.033X0.039*%
%ADD21R,0.033X0.039*%
%ADD22C,0.060*%
%ADD23R,0.118X0.039*%
%ADD24C,0.010*%
%ADD25C,0.012*%
%ADD26C,0.015*%
%ADD27C,0.050*%
%ADD28C,0.020*%
%ADD29C,0.025*%
%ADD30R,0.049X0.049*%
%ADD31C,0.049*%
%ADD32C,0.067*%
%ADD33R,0.067X0.067*%
%ADD34R,0.100X0.100*%
%ADD35C,0.100*%
%ADD36C,0.210*%
%ADD37R,0.059X0.059*%
%ADD38C,0.059*%
%ADD39C,0.047*%
%ADD40C,0.039*%
%ADD41C,0.030*%
%ADD42C,0.029*%
%ADD43C,0.040*%
%ADD44C,0.050*%
%ADD45C,0.008*%
%ADD46C,0.010*%
%ADD47C,0.004*%
%ADD48C,0.007*%
%ADD49C,0.006*%
%ADD50C,0.008*%
%ADD51R,0.071X0.079*%
%ADD52R,0.036X0.043*%
%ADD53R,0.055X0.021*%
%ADD54R,0.079X0.071*%
%ADD55R,0.030X0.065*%
%ADD56R,0.030X0.065*%
%ADD57R,0.323X0.146*%
%ADD58R,0.087X0.020*%
%ADD59R,0.138X0.068*%
%ADD60O,0.036X0.106*%
%ADD61R,0.041X0.047*%
%ADD62R,0.041X0.047*%
%ADD63C,0.068*%
%ADD64R,0.126X0.047*%
%ADD65R,0.057X0.057*%
%ADD66C,0.057*%
%ADD67C,0.075*%
%ADD68R,0.075X0.075*%
%ADD69R,0.108X0.108*%
%ADD70C,0.108*%
%ADD71C,0.218*%
%ADD72R,0.067X0.067*%
%ADD73C,0.067*%
%ADD74C,0.055*%
%ADD75C,0.038*%
%ADD76C,0.037*%
%ADD77C,0.048*%
%ADD78C,0.058*%
%ADD79C,0.011*%
D47*
X645Y2460D02*
X674Y2460D01*
X659Y2445D02*
X659Y2475D01*
X566Y2460D02*
X595Y2460D01*
X581Y2445D02*
X581Y2475D01*
X966Y2800D02*
X995Y2800D01*
X981Y2785D02*
X981Y2815D01*
X1045Y2800D02*
X1074Y2800D01*
X1059Y2785D02*
X1059Y2815D01*
X2117Y2644D02*
X2147Y2644D01*
X2132Y2629D02*
X2132Y2659D01*
X1817Y2644D02*
X1847Y2644D01*
X1832Y2629D02*
X1832Y2659D01*
X1617Y2644D02*
X1647Y2644D01*
X1632Y2629D02*
X1632Y2659D01*
X1417Y2644D02*
X1447Y2644D01*
X1432Y2629D02*
X1432Y2659D01*
X1417Y2344D02*
X1447Y2344D01*
X1432Y2329D02*
X1432Y2359D01*
X1617Y2344D02*
X1647Y2344D01*
X1632Y2329D02*
X1632Y2359D01*
X1817Y2344D02*
X1847Y2344D01*
X1832Y2329D02*
X1832Y2359D01*
X2117Y2344D02*
X2147Y2344D01*
X2132Y2329D02*
X2132Y2359D01*
X858Y1040D02*
X902Y1040D01*
X880Y1018D02*
X880Y1062D01*
X858Y1140D02*
X902Y1140D01*
X880Y1118D02*
X880Y1162D01*
X858Y1240D02*
X902Y1240D01*
X880Y1218D02*
X880Y1262D01*
X309Y3168D02*
X361Y3168D01*
X335Y3142D02*
X335Y3194D01*
X309Y2952D02*
X361Y2952D01*
X335Y2926D02*
X335Y2978D01*
X474Y2952D02*
X526Y2952D01*
X500Y2926D02*
X500Y2978D01*
X474Y3168D02*
X526Y3168D01*
X500Y3142D02*
X500Y3194D01*
X639Y2952D02*
X691Y2952D01*
X665Y2926D02*
X665Y2978D01*
X639Y3168D02*
X691Y3168D01*
X665Y3142D02*
X665Y3194D01*
X-94Y-0D02*
X94Y-0D01*
X-0Y-94D02*
X-0Y94D01*
X-94Y3623D02*
X94Y3623D01*
X-0Y3529D02*
X-0Y3717D01*
X3528Y-0D02*
X3716Y-0D01*
X3622Y-94D02*
X3622Y94D01*
X3528Y3622D02*
X3716Y3622D01*
X3622Y3528D02*
X3622Y3716D01*
X124Y899D02*
X160Y899D01*
X142Y881D02*
X142Y917D01*
X124Y799D02*
X160Y799D01*
X142Y781D02*
X142Y817D01*
X124Y699D02*
X160Y699D01*
X142Y681D02*
X142Y717D01*
X124Y599D02*
X160Y599D01*
X142Y581D02*
X142Y617D01*
X1485Y3420D02*
X1515Y3420D01*
X1500Y3405D02*
X1500Y3435D01*
X1565Y3420D02*
X1595Y3420D01*
X1580Y3405D02*
X1580Y3435D01*
X3166Y3420D02*
X3196Y3420D01*
X3181Y3405D02*
X3181Y3435D01*
X3246Y3420D02*
X3276Y3420D01*
X3261Y3405D02*
X3261Y3435D01*
X2541Y3420D02*
X2571Y3420D01*
X2556Y3405D02*
X2556Y3435D01*
X2621Y3420D02*
X2651Y3420D01*
X2636Y3405D02*
X2636Y3435D01*
X2854Y3420D02*
X2884Y3420D01*
X2869Y3405D02*
X2869Y3435D01*
X2934Y3420D02*
X2964Y3420D01*
X2949Y3405D02*
X2949Y3435D01*
X1797Y3419D02*
X1827Y3419D01*
X1812Y3404D02*
X1812Y3434D01*
X1877Y3419D02*
X1907Y3419D01*
X1892Y3404D02*
X1892Y3434D01*
X2109Y3419D02*
X2139Y3419D01*
X2124Y3404D02*
X2124Y3434D01*
X2189Y3419D02*
X2219Y3419D01*
X2204Y3404D02*
X2204Y3434D01*
X1171Y3420D02*
X1201Y3420D01*
X1186Y3405D02*
X1186Y3435D01*
X1251Y3420D02*
X1281Y3420D01*
X1266Y3405D02*
X1266Y3435D01*
X3416Y2895D02*
X3446Y2895D01*
X3431Y2880D02*
X3431Y2910D01*
X3416Y2815D02*
X3446Y2815D01*
X3431Y2800D02*
X3431Y2830D01*
X3416Y2575D02*
X3446Y2575D01*
X3431Y2560D02*
X3431Y2590D01*
X3416Y2495D02*
X3446Y2495D01*
X3431Y2480D02*
X3431Y2510D01*
X868Y1516D02*
X893Y1516D01*
X881Y1503D02*
X881Y1528D01*
X3528Y874D02*
X3559Y874D01*
X3543Y858D02*
X3543Y890D01*
X3449Y874D02*
X3480Y874D01*
X3465Y858D02*
X3465Y890D01*
X3528Y953D02*
X3559Y953D01*
X3543Y937D02*
X3543Y969D01*
X3449Y953D02*
X3480Y953D01*
X3465Y937D02*
X3465Y969D01*
X3528Y1032D02*
X3559Y1032D01*
X3543Y1016D02*
X3543Y1047D01*
X3449Y1032D02*
X3480Y1032D01*
X3465Y1016D02*
X3465Y1047D01*
X3528Y1110D02*
X3559Y1110D01*
X3543Y1095D02*
X3543Y1126D01*
X3449Y1110D02*
X3480Y1110D01*
X3465Y1095D02*
X3465Y1126D01*
X3528Y1189D02*
X3559Y1189D01*
X3543Y1173D02*
X3543Y1205D01*
X3449Y1189D02*
X3480Y1189D01*
X3465Y1173D02*
X3465Y1205D01*
X3528Y1268D02*
X3559Y1268D01*
X3543Y1252D02*
X3543Y1284D01*
X3449Y1268D02*
X3480Y1268D01*
X3465Y1252D02*
X3465Y1284D01*
X3528Y1347D02*
X3559Y1347D01*
X3543Y1331D02*
X3543Y1362D01*
X3449Y1347D02*
X3480Y1347D01*
X3465Y1331D02*
X3465Y1362D01*
X3528Y1425D02*
X3559Y1425D01*
X3543Y1410D02*
X3543Y1441D01*
X3449Y1425D02*
X3480Y1425D01*
X3465Y1410D02*
X3465Y1441D01*
X3528Y1504D02*
X3559Y1504D01*
X3543Y1488D02*
X3543Y1520D01*
X3449Y1504D02*
X3480Y1504D01*
X3465Y1488D02*
X3465Y1520D01*
X3528Y1583D02*
X3559Y1583D01*
X3543Y1567D02*
X3543Y1598D01*
X3449Y1583D02*
X3480Y1583D01*
X3465Y1567D02*
X3465Y1598D01*
X3528Y1661D02*
X3559Y1661D01*
X3543Y1646D02*
X3543Y1677D01*
X3449Y1661D02*
X3480Y1661D01*
X3465Y1646D02*
X3465Y1677D01*
X3528Y1740D02*
X3559Y1740D01*
X3543Y1724D02*
X3543Y1756D01*
X3449Y1740D02*
X3480Y1740D01*
X3465Y1724D02*
X3465Y1756D01*
X3528Y1819D02*
X3559Y1819D01*
X3543Y1803D02*
X3543Y1835D01*
X3449Y1819D02*
X3480Y1819D01*
X3465Y1803D02*
X3465Y1835D01*
X3528Y1898D02*
X3559Y1898D01*
X3543Y1882D02*
X3543Y1913D01*
X3449Y1898D02*
X3480Y1898D01*
X3465Y1882D02*
X3465Y1913D01*
X3528Y1976D02*
X3559Y1976D01*
X3543Y1961D02*
X3543Y1992D01*
X3449Y1976D02*
X3480Y1976D01*
X3465Y1961D02*
X3465Y1992D01*
X3528Y2055D02*
X3559Y2055D01*
X3543Y2039D02*
X3543Y2071D01*
X3449Y2055D02*
X3480Y2055D01*
X3465Y2039D02*
X3465Y2071D01*
X3528Y2134D02*
X3559Y2134D01*
X3543Y2118D02*
X3543Y2150D01*
X3449Y2134D02*
X3480Y2134D01*
X3465Y2118D02*
X3465Y2150D01*
X3484Y913D02*
X3524Y913D01*
X3504Y894D02*
X3504Y933D01*
X3484Y2095D02*
X3524Y2095D01*
X3504Y2075D02*
X3504Y2114D01*
X3032Y1440D02*
X3046Y1440D01*
X3039Y1433D02*
X3039Y1447D01*
X1681Y2984D02*
X1696Y2984D01*
X1689Y2977D02*
X1689Y2991D01*
X147Y2023D02*
X162Y2023D01*
X155Y2016D02*
X155Y2030D01*
X292Y2021D02*
X308Y2021D01*
X300Y2013D02*
X300Y2029D01*
X147Y1985D02*
X162Y1985D01*
X155Y1977D02*
X155Y1992D01*
X147Y1945D02*
X162Y1945D01*
X155Y1938D02*
X155Y1952D01*
X292Y1942D02*
X308Y1942D01*
X300Y1934D02*
X300Y1949D01*
X147Y1905D02*
X162Y1905D01*
X155Y1898D02*
X155Y1913D01*
X292Y1902D02*
X308Y1902D01*
X300Y1895D02*
X300Y1910D01*
X-75Y1855D02*
X-60Y1855D01*
X-67Y1847D02*
X-67Y1862D01*
X-45Y1827D02*
X-31Y1827D01*
X-38Y1819D02*
X-38Y1834D01*
X-21Y1800D02*
X-5Y1800D01*
X-13Y1793D02*
X-13Y1808D01*
X7Y1777D02*
X23Y1777D01*
X15Y1770D02*
X15Y1785D01*
X36Y1754D02*
X51Y1754D01*
X43Y1747D02*
X43Y1762D01*
X64Y1728D02*
X79Y1728D01*
X71Y1720D02*
X71Y1735D01*
X93Y1706D02*
X108Y1706D01*
X100Y1699D02*
X100Y1714D01*
X345Y2221D02*
X359Y2221D01*
X352Y2214D02*
X352Y2228D01*
X373Y2199D02*
X389Y2199D01*
X381Y2191D02*
X381Y2207D01*
X401Y2173D02*
X417Y2173D01*
X409Y2165D02*
X409Y2181D01*
X428Y2146D02*
X444Y2146D01*
X436Y2138D02*
X436Y2154D01*
X458Y2124D02*
X472Y2124D01*
X465Y2116D02*
X465Y2132D01*
X512Y2072D02*
X526Y2072D01*
X519Y2065D02*
X519Y2079D01*
X2643Y927D02*
X2665Y927D01*
X2654Y916D02*
X2654Y938D01*
X8Y832D02*
X30Y832D01*
X19Y821D02*
X19Y843D01*
X1674Y1378D02*
X1689Y1378D01*
X1682Y1370D02*
X1682Y1385D01*
X1906Y2012D02*
X1921Y2012D01*
X1913Y2004D02*
X1913Y2020D01*
X1442Y2012D02*
X1457Y2012D01*
X1450Y2004D02*
X1450Y2020D01*
X2628Y1455D02*
X2656Y1455D01*
X2642Y1441D02*
X2642Y1469D01*
X3505Y677D02*
X3533Y677D01*
X3519Y663D02*
X3519Y691D01*
X3414Y678D02*
X3442Y678D01*
X3428Y664D02*
X3428Y692D01*
X2661Y1692D02*
X2677Y1692D01*
X2669Y1684D02*
X2669Y1699D01*
X3299Y1272D02*
X3315Y1272D01*
X3307Y1265D02*
X3307Y1280D01*
X2898Y1673D02*
X2912Y1673D01*
X2905Y1666D02*
X2905Y1681D01*
X3306Y1347D02*
X3322Y1347D01*
X3314Y1339D02*
X3314Y1355D01*
X3302Y1148D02*
X3316Y1148D01*
X3309Y1140D02*
X3309Y1156D01*
X3282Y1582D02*
X3296Y1582D01*
X3289Y1574D02*
X3289Y1589D01*
X2591Y1493D02*
X2619Y1493D01*
X2605Y1479D02*
X2605Y1507D01*
X2573Y2770D02*
X2589Y2770D01*
X2581Y2763D02*
X2581Y2777D01*
X3305Y2059D02*
X3319Y2059D01*
X3312Y2052D02*
X3312Y2066D01*
X3279Y1741D02*
X3293Y1741D01*
X3286Y1734D02*
X3286Y1748D01*
X1247Y2024D02*
X1263Y2024D01*
X1255Y2016D02*
X1255Y2032D01*
X2020Y3144D02*
X2036Y3144D01*
X2028Y3136D02*
X2028Y3151D01*
X2790Y2375D02*
X2806Y2375D01*
X2798Y2368D02*
X2798Y2382D01*
X2816Y1833D02*
X2830Y1833D01*
X2823Y1826D02*
X2823Y1840D01*
X2740Y1231D02*
X2756Y1231D01*
X2748Y1224D02*
X2748Y1238D01*
X1817Y1540D02*
X1832Y1540D01*
X1825Y1533D02*
X1825Y1548D01*
X3297Y1430D02*
X3312Y1430D01*
X3305Y1423D02*
X3305Y1438D01*
X2978Y1757D02*
X2993Y1757D01*
X2986Y1750D02*
X2986Y1765D01*
X2978Y2449D02*
X2993Y2449D01*
X2986Y2441D02*
X2986Y2457D01*
X3269Y1663D02*
X3297Y1663D01*
X3283Y1649D02*
X3283Y1677D01*
X3056Y1874D02*
X3084Y1874D01*
X3070Y1860D02*
X3070Y1888D01*
X3125Y2026D02*
X3141Y2026D01*
X3133Y2019D02*
X3133Y2033D01*
X292Y1981D02*
X308Y1981D01*
X300Y1974D02*
X300Y1988D01*
X139Y1702D02*
X154Y1702D01*
X146Y1694D02*
X146Y1709D01*
X298Y2219D02*
X312Y2219D01*
X305Y2211D02*
X305Y2227D01*
X294Y1657D02*
X310Y1657D01*
X302Y1650D02*
X302Y1664D01*
X405Y2229D02*
X419Y2229D01*
X412Y2221D02*
X412Y2237D01*
X361Y2294D02*
X389Y2294D01*
X375Y2280D02*
X375Y2308D01*
X983Y761D02*
X998Y761D01*
X990Y753D02*
X990Y768D01*
X1401Y764D02*
X1416Y764D01*
X1409Y757D02*
X1409Y771D01*
X1816Y990D02*
X1832Y990D01*
X1824Y983D02*
X1824Y998D01*
X705Y2170D02*
X720Y2170D01*
X712Y2162D02*
X712Y2178D01*
X709Y1835D02*
X724Y1835D01*
X716Y1827D02*
X716Y1842D01*
X1095Y2136D02*
X1110Y2136D01*
X1103Y2128D02*
X1103Y2144D01*
X1860Y1237D02*
X1875Y1237D01*
X1868Y1230D02*
X1868Y1245D01*
X1778Y1685D02*
X1793Y1685D01*
X1786Y1678D02*
X1786Y1692D01*
X1903Y1436D02*
X1918Y1436D01*
X1910Y1429D02*
X1910Y1444D01*
X2260Y1120D02*
X2276Y1120D01*
X2268Y1112D02*
X2268Y1128D01*
X2316Y638D02*
X2332Y638D01*
X2324Y631D02*
X2324Y646D01*
X2338Y216D02*
X2352Y216D01*
X2345Y208D02*
X2345Y223D01*
X1253Y251D02*
X1268Y251D01*
X1261Y243D02*
X1261Y259D01*
X1253Y457D02*
X1268Y457D01*
X1261Y449D02*
X1261Y465D01*
X317Y455D02*
X333Y455D01*
X325Y447D02*
X325Y463D01*
X3480Y402D02*
X3496Y402D01*
X3488Y394D02*
X3488Y410D01*
X3009Y1234D02*
X3023Y1234D01*
X3016Y1227D02*
X3016Y1242D01*
X3332Y2345D02*
X3348Y2345D01*
X3340Y2338D02*
X3340Y2352D01*
X2760Y2711D02*
X2774Y2711D01*
X2767Y2704D02*
X2767Y2718D01*
X3027Y2709D02*
X3043Y2709D01*
X3035Y2701D02*
X3035Y2717D01*
X2369Y3395D02*
X2385Y3395D01*
X2377Y3388D02*
X2377Y3402D01*
X2007Y3279D02*
X2022Y3279D01*
X2014Y3272D02*
X2014Y3286D01*
X1738Y3287D02*
X1753Y3287D01*
X1746Y3280D02*
X1746Y3295D01*
X2365Y2587D02*
X2379Y2587D01*
X2372Y2579D02*
X2372Y2595D01*
X2641Y2287D02*
X2655Y2287D01*
X2648Y2280D02*
X2648Y2295D01*
X3078Y3236D02*
X3092Y3236D01*
X3085Y3228D02*
X3085Y3243D01*
X2760Y3234D02*
X2774Y3234D01*
X2767Y3227D02*
X2767Y3241D01*
X3560Y3292D02*
X3576Y3292D01*
X3568Y3284D02*
X3568Y3299D01*
X948Y3284D02*
X964Y3284D01*
X956Y3276D02*
X956Y3292D01*
X140Y2725D02*
X154Y2725D01*
X147Y2717D02*
X147Y2733D01*
X380Y2436D02*
X396Y2436D01*
X388Y2428D02*
X388Y2444D01*
X712Y2732D02*
X728Y2732D01*
X720Y2724D02*
X720Y2740D01*
X1271Y2791D02*
X1286Y2791D01*
X1279Y2783D02*
X1279Y2799D01*
X1311Y3236D02*
X1327Y3236D01*
X1319Y3228D02*
X1319Y3243D01*
X1664Y2846D02*
X1679Y2846D01*
X1672Y2839D02*
X1672Y2853D01*
X1872Y2189D02*
X1887Y2189D01*
X1879Y2181D02*
X1879Y2197D01*
X2187Y2176D02*
X2201Y2176D01*
X2194Y2168D02*
X2194Y2184D01*
X2216Y1664D02*
X2230Y1664D01*
X2223Y1656D02*
X2223Y1671D01*
X1783Y203D02*
X1798Y203D01*
X1791Y196D02*
X1791Y211D01*
X2828Y192D02*
X2842Y192D01*
X2835Y184D02*
X2835Y199D01*
X853Y166D02*
X868Y166D01*
X860Y159D02*
X860Y174D01*
X461Y1163D02*
X477Y1163D01*
X469Y1156D02*
X469Y1171D01*
X1031Y1510D02*
X1046Y1510D01*
X1038Y1503D02*
X1038Y1518D01*
X1212Y1055D02*
X1227Y1055D01*
X1219Y1048D02*
X1219Y1062D01*
X1Y1183D02*
X15Y1183D01*
X8Y1176D02*
X8Y1191D01*
X-60Y2184D02*
X-45Y2184D01*
X-53Y2177D02*
X-53Y2191D01*
X-78Y1615D02*
X-62Y1615D01*
X-70Y1607D02*
X-70Y1622D01*
X2707Y1086D02*
X2721Y1086D01*
X2714Y1079D02*
X2714Y1094D01*
X2450Y1237D02*
X2464Y1237D01*
X2457Y1230D02*
X2457Y1245D01*
X468Y1711D02*
X484Y1711D01*
X476Y1704D02*
X476Y1719D01*
X733Y1478D02*
X748Y1478D01*
X740Y1470D02*
X740Y1485D01*
X3184Y1611D02*
X3198Y1611D01*
X3191Y1604D02*
X3191Y1618D01*
X486Y2100D02*
X502Y2100D01*
X494Y2092D02*
X494Y2108D01*
X3504Y1661D02*
X3520Y1661D01*
X3512Y1653D02*
X3512Y1668D01*
X3504Y1344D02*
X3520Y1344D01*
X3512Y1337D02*
X3512Y1352D01*
M02*
