%FSLAX23Y23*%
%MOIN*%
G70*
G01*
G75*
G04 Layer_Color=65535*
%ADD10R,0.063X0.071*%
%ADD11R,0.028X0.035*%
%ADD12R,0.047X0.013*%
%ADD13R,0.071X0.063*%
%ADD14R,0.022X0.057*%
%ADD15R,0.022X0.057*%
%ADD16R,0.315X0.138*%
%ADD17R,0.079X0.012*%
%ADD18R,0.130X0.060*%
%ADD19O,0.028X0.098*%
%ADD20R,0.033X0.039*%
%ADD21R,0.033X0.039*%
%ADD22C,0.060*%
%ADD23R,0.118X0.039*%
%ADD24C,0.010*%
%ADD25C,0.012*%
%ADD26C,0.015*%
%ADD27C,0.050*%
%ADD28C,0.020*%
%ADD29C,0.025*%
%ADD30R,0.049X0.049*%
%ADD31C,0.049*%
%ADD32C,0.067*%
%ADD33R,0.067X0.067*%
%ADD34R,0.100X0.100*%
%ADD35C,0.100*%
%ADD36C,0.210*%
%ADD37R,0.059X0.059*%
%ADD38C,0.059*%
%ADD39C,0.047*%
%ADD40C,0.039*%
%ADD41C,0.030*%
%ADD42C,0.029*%
%ADD43C,0.040*%
%ADD44C,0.050*%
%ADD45C,0.008*%
%ADD46C,0.010*%
%ADD47C,0.004*%
%ADD48C,0.007*%
%ADD49C,0.006*%
%ADD50C,0.008*%
D24*
X1588Y3360D02*
G03*
X1588Y3360I-5J0D01*
G01*
X3269Y3360D02*
G03*
X3269Y3360I-5J0D01*
G01*
X2644Y3360D02*
G03*
X2644Y3360I-5J0D01*
G01*
X2957Y3360D02*
G03*
X2957Y3360I-5J0D01*
G01*
X1900Y3359D02*
G03*
X1900Y3359I-5J0D01*
G01*
X2212Y3359D02*
G03*
X2212Y3359I-5J0D01*
G01*
X1274Y3360D02*
G03*
X1274Y3360I-5J0D01*
G01*
X3376Y2812D02*
G03*
X3376Y2812I-5J0D01*
G01*
X3376Y2492D02*
G03*
X3376Y2492I-5J0D01*
G01*
X1382Y2294D02*
X1382Y2694D01*
X2182Y2694D01*
X2182Y2294D02*
X2182Y2694D01*
X1382Y2294D02*
X2182Y2294D01*
X431Y2816D02*
X431Y2871D01*
X569Y2816D02*
X569Y2871D01*
X431Y2816D02*
X569Y2816D01*
X997Y-136D02*
X997Y348D01*
X501Y348D02*
X997Y348D01*
X501Y-136D02*
X501Y348D01*
X501Y-136D02*
X997Y-136D01*
X2058Y-134D02*
X2058Y350D01*
X1562Y350D02*
X2058Y350D01*
X1562Y-134D02*
X1562Y350D01*
X1562Y-134D02*
X2058Y-134D01*
X3120Y-134D02*
X3120Y350D01*
X2624Y350D02*
X3120Y350D01*
X2624Y-134D02*
X2624Y350D01*
X2624Y-134D02*
X3120Y-134D01*
X2090Y681D02*
X2090Y851D01*
X1180Y851D02*
X2090Y851D01*
X1180Y681D02*
X1180Y851D01*
X1180Y681D02*
X2090Y681D01*
X1190Y886D02*
X1190Y936D01*
X1223Y886D01*
X1223Y936D01*
X1248Y886D02*
X1265Y886D01*
X1273Y894D01*
X1273Y911D01*
X1265Y919D01*
X1248Y919D01*
X1240Y911D01*
X1240Y894D01*
X1248Y886D01*
X1290Y886D02*
X1290Y894D01*
X1298Y894D01*
X1298Y886D01*
X1290Y886D01*
X1415Y936D02*
X1415Y886D01*
X1390Y886D01*
X1382Y894D01*
X1382Y911D01*
X1390Y919D01*
X1415Y919D01*
X1457Y886D02*
X1440Y886D01*
X1432Y894D01*
X1432Y911D01*
X1440Y919D01*
X1457Y919D01*
X1465Y911D01*
X1465Y903D01*
X1432Y903D01*
X1565Y928D02*
X1557Y936D01*
X1540Y936D01*
X1532Y928D01*
X1532Y919D01*
X1540Y911D01*
X1557Y911D01*
X1565Y903D01*
X1565Y894D01*
X1557Y886D01*
X1540Y886D01*
X1532Y894D01*
X1607Y886D02*
X1590Y886D01*
X1582Y894D01*
X1582Y911D01*
X1590Y919D01*
X1607Y919D01*
X1615Y911D01*
X1615Y903D01*
X1582Y903D01*
X1632Y919D02*
X1632Y886D01*
X1632Y903D01*
X1640Y911D01*
X1648Y919D01*
X1657Y919D01*
X1682Y886D02*
X1698Y886D01*
X1690Y886D01*
X1690Y919D01*
X1682Y919D01*
X1748Y886D02*
X1731Y886D01*
X1723Y894D01*
X1723Y911D01*
X1731Y919D01*
X1748Y919D01*
X1756Y911D01*
X1756Y903D01*
X1723Y903D01*
X1773Y919D02*
X1781Y919D01*
X1781Y911D01*
X1773Y911D01*
X1773Y919D01*
X1773Y894D02*
X1781Y894D01*
X1781Y886D01*
X1773Y886D01*
X1773Y894D01*
D45*
X718Y2460D02*
G03*
X718Y2460I-98J0D01*
G01*
X1118Y2800D02*
G03*
X1118Y2800I-98J0D01*
G01*
X3163Y1398D02*
X3187Y1398D01*
X3163Y1336D02*
X3187Y1336D01*
X348Y915D02*
X364Y915D01*
X348Y887D02*
X364Y887D01*
X348Y815D02*
X364Y815D01*
X348Y787D02*
X364Y787D01*
X348Y615D02*
X364Y615D01*
X348Y587D02*
X364Y587D01*
X348Y715D02*
X364Y715D01*
X348Y687D02*
X364Y687D01*
X2255Y810D02*
X2373Y810D01*
X2255Y810D02*
X2255Y928D01*
X2373Y928D01*
X2373Y810D02*
X2373Y928D01*
X1485Y1055D02*
X1485Y1079D01*
X1547Y1055D02*
X1547Y1079D01*
X1606Y1057D02*
X1606Y1081D01*
X1668Y1057D02*
X1668Y1081D01*
X1427Y1055D02*
X1427Y1079D01*
X1365Y1055D02*
X1365Y1079D01*
X2051Y1288D02*
X2051Y1312D01*
X1989Y1288D02*
X1989Y1312D01*
X2449Y1389D02*
X2449Y1413D01*
X2387Y1389D02*
X2387Y1413D01*
X2271Y1286D02*
X2271Y1310D01*
X2209Y1286D02*
X2209Y1310D01*
X1560Y1844D02*
X1560Y1868D01*
X1497Y1844D02*
X1497Y1868D01*
X1629Y1848D02*
X1629Y1872D01*
X1691Y1848D02*
X1691Y1872D01*
X974Y935D02*
X974Y1345D01*
X813Y1345D02*
X994Y1345D01*
X813Y935D02*
X813Y1345D01*
X813Y935D02*
X994Y935D01*
X994Y1345D01*
X774Y2873D02*
X774Y3249D01*
X226Y2871D02*
X226Y3249D01*
X226Y3249D02*
X774Y3249D01*
X228Y2871D02*
X774Y2871D01*
X479Y3485D02*
X479Y3555D01*
X601Y3485D02*
X601Y3555D01*
X599Y3485D02*
X601Y3485D01*
X599Y3555D02*
X601Y3555D01*
X479Y3485D02*
X481Y3485D01*
X479Y3555D02*
X481Y3555D01*
X-20Y1520D02*
X-20Y2288D01*
X861Y413D02*
X885Y413D01*
X861Y475D02*
X885Y475D01*
X1904Y409D02*
X1928Y409D01*
X1904Y471D02*
X1928Y471D01*
X3162Y1227D02*
X3186Y1227D01*
X3162Y1289D02*
X3186Y1289D01*
X2945Y412D02*
X2969Y412D01*
X2945Y474D02*
X2969Y474D01*
X1189Y1791D02*
X1213Y1791D01*
X1189Y1729D02*
X1213Y1729D01*
X2349Y2053D02*
X2349Y2077D01*
X2411Y2053D02*
X2411Y2077D01*
X92Y549D02*
X192Y549D01*
X92Y549D02*
X92Y949D01*
X192Y549D02*
X192Y949D01*
X92Y949D02*
X192Y949D01*
X1692Y3341D02*
X1692Y3755D01*
X1388Y3341D02*
X1692Y3341D01*
X1388Y3341D02*
X1388Y3755D01*
X1692Y3755D01*
X3373Y3341D02*
X3373Y3755D01*
X3069Y3341D02*
X3373Y3341D01*
X3069Y3341D02*
X3069Y3755D01*
X3373Y3755D01*
X2748Y3341D02*
X2748Y3755D01*
X2444Y3341D02*
X2748Y3341D01*
X2444Y3341D02*
X2444Y3755D01*
X2748Y3755D01*
X3061Y3341D02*
X3061Y3755D01*
X2757Y3341D02*
X3061Y3341D01*
X2757Y3341D02*
X2757Y3755D01*
X3061Y3755D01*
X2004Y3340D02*
X2004Y3754D01*
X1700Y3340D02*
X2004Y3340D01*
X1700Y3340D02*
X1700Y3754D01*
X2004Y3754D01*
X2316Y3340D02*
X2316Y3754D01*
X2012Y3340D02*
X2316Y3340D01*
X2012Y3340D02*
X2012Y3754D01*
X2316Y3754D01*
X1378Y3341D02*
X1378Y3755D01*
X1074Y3341D02*
X1378Y3341D01*
X1074Y3341D02*
X1074Y3755D01*
X1378Y3755D01*
X3352Y2703D02*
X3766Y2703D01*
X3352Y2703D02*
X3352Y3007D01*
X3766Y3007D01*
X3766Y2703D02*
X3766Y3007D01*
X3352Y2383D02*
X3766Y2383D01*
X3352Y2383D02*
X3352Y2687D01*
X3766Y2687D01*
X3766Y2383D02*
X3766Y2687D01*
X1433Y1418D02*
X1433Y1480D01*
X1629Y1418D02*
X1629Y1480D01*
X1433Y1418D02*
X1629Y1418D01*
X1433Y1480D02*
X1629Y1480D01*
X3151Y868D02*
X3151Y892D01*
X3089Y868D02*
X3089Y892D01*
X2769Y868D02*
X2769Y892D01*
X2831Y868D02*
X2831Y892D01*
X636Y554D02*
X660Y554D01*
X636Y616D02*
X660Y616D01*
X636Y414D02*
X660Y414D01*
X636Y476D02*
X660Y476D01*
X861Y615D02*
X885Y615D01*
X861Y553D02*
X885Y553D01*
X1684Y549D02*
X1708Y549D01*
X1684Y611D02*
X1708Y611D01*
X1684Y409D02*
X1708Y409D01*
X1684Y471D02*
X1708Y471D01*
X1904Y611D02*
X1928Y611D01*
X1904Y549D02*
X1928Y549D01*
X1189Y1919D02*
X1213Y1919D01*
X1189Y1856D02*
X1213Y1856D01*
X468Y2711D02*
X492Y2711D01*
X468Y2649D02*
X492Y2649D01*
X2711Y554D02*
X2735Y554D01*
X2711Y616D02*
X2735Y616D01*
X2711Y410D02*
X2735Y410D01*
X2711Y472D02*
X2735Y472D01*
X2945Y614D02*
X2969Y614D01*
X2945Y552D02*
X2969Y552D01*
X2810Y1933D02*
X2810Y1992D01*
X2710Y1933D02*
X2710Y1992D01*
X2792Y1933D02*
X2810Y1933D01*
X2710Y1933D02*
X2728Y1933D01*
X2769Y2213D02*
X2769Y2237D01*
X2831Y2213D02*
X2831Y2237D01*
X2525Y1662D02*
X2549Y1662D01*
X2525Y1724D02*
X2549Y1724D01*
X2520Y1782D02*
X2544Y1782D01*
X2520Y1844D02*
X2544Y1844D01*
X1431Y1848D02*
X1431Y1872D01*
X1369Y1848D02*
X1369Y1872D01*
X2991Y868D02*
X2991Y892D01*
X2929Y868D02*
X2929Y892D01*
X888Y2651D02*
X912Y2651D01*
X888Y2589D02*
X912Y2589D01*
X1188Y1589D02*
X1212Y1589D01*
X1188Y1651D02*
X1212Y1651D01*
X2405Y2913D02*
X2601Y2913D01*
X2405Y2975D02*
X2601Y2975D01*
X2405Y2913D02*
X2405Y2975D01*
X2601Y2913D02*
X2601Y2975D01*
X2725Y2913D02*
X2921Y2913D01*
X2725Y2975D02*
X2921Y2975D01*
X2725Y2913D02*
X2725Y2975D01*
X2921Y2913D02*
X2921Y2975D01*
X3045Y2913D02*
X3241Y2913D01*
X3045Y2975D02*
X3241Y2975D01*
X3045Y2913D02*
X3045Y2975D01*
X3241Y2913D02*
X3241Y2975D01*
X2002Y1889D02*
X2198Y1889D01*
X2002Y1951D02*
X2198Y1951D01*
X2002Y1889D02*
X2002Y1951D01*
X2198Y1889D02*
X2198Y1951D01*
X3681Y1455D02*
X3681Y1553D01*
X3612Y2239D02*
X3612Y2291D01*
X3396Y2239D02*
X3396Y2291D01*
X3612Y717D02*
X3612Y776D01*
X3396Y717D02*
X3396Y776D01*
X3396Y2291D02*
X3612Y2291D01*
X3396Y717D02*
X3612Y717D01*
D46*
X2235Y948D02*
G03*
X2235Y948I-5J0D01*
G01*
X320Y1466D02*
G03*
X320Y1466I-5J0D01*
G01*
X1646Y1545D02*
G03*
X1646Y1545I-5J0D01*
G01*
X2841Y2027D02*
G03*
X2841Y2027I-5J0D01*
G01*
X2397Y2848D02*
G03*
X2397Y2848I-5J0D01*
G01*
X2717Y2848D02*
G03*
X2717Y2848I-5J0D01*
G01*
X3037Y2848D02*
G03*
X3037Y2848I-5J0D01*
G01*
X1994Y1824D02*
G03*
X1994Y1824I-5J0D01*
G01*
D47*
X602Y3571D02*
G03*
X602Y3571I-2J0D01*
G01*
D48*
X2968Y1356D02*
X2968Y1396D01*
X2988Y1396D01*
X2995Y1389D01*
X2995Y1376D01*
X2988Y1369D01*
X2968Y1369D01*
X2981Y1369D02*
X2995Y1356D01*
X3035Y1356D02*
X3008Y1356D01*
X3035Y1383D01*
X3035Y1389D01*
X3028Y1396D01*
X3015Y1396D01*
X3008Y1389D01*
X3048Y1356D02*
X3061Y1356D01*
X3055Y1356D01*
X3055Y1396D01*
X3048Y1389D01*
X418Y722D02*
X418Y695D01*
X431Y682D01*
X445Y695D01*
X445Y722D01*
X478Y682D02*
X478Y722D01*
X458Y702D01*
X485Y702D01*
X422Y620D02*
X422Y593D01*
X435Y580D01*
X449Y593D01*
X449Y620D01*
X462Y613D02*
X469Y620D01*
X482Y620D01*
X489Y613D01*
X489Y607D01*
X482Y600D01*
X475Y600D01*
X482Y600D01*
X489Y593D01*
X489Y587D01*
X482Y580D01*
X469Y580D01*
X462Y587D01*
X415Y915D02*
X415Y888D01*
X428Y875D01*
X442Y888D01*
X442Y915D01*
X482Y875D02*
X455Y875D01*
X482Y902D01*
X482Y908D01*
X475Y915D01*
X462Y915D01*
X455Y908D01*
X415Y820D02*
X415Y793D01*
X428Y780D01*
X442Y793D01*
X442Y820D01*
X455Y780D02*
X468Y780D01*
X462Y780D01*
X462Y820D01*
X455Y813D01*
X1312Y1456D02*
X1312Y1423D01*
X1319Y1416D01*
X1332Y1416D01*
X1339Y1423D01*
X1339Y1456D01*
X1379Y1456D02*
X1352Y1456D01*
X1352Y1436D01*
X1365Y1443D01*
X1372Y1443D01*
X1379Y1436D01*
X1379Y1423D01*
X1372Y1416D01*
X1359Y1416D01*
X1352Y1423D01*
X2208Y1416D02*
X2208Y1456D01*
X2228Y1456D01*
X2235Y1449D01*
X2235Y1436D01*
X2228Y1429D01*
X2208Y1429D01*
X2221Y1429D02*
X2235Y1416D01*
X2248Y1416D02*
X2261Y1416D01*
X2255Y1416D01*
X2255Y1456D01*
X2248Y1449D01*
X2281Y1423D02*
X2288Y1416D01*
X2301Y1416D01*
X2308Y1423D01*
X2308Y1449D01*
X2301Y1456D01*
X2288Y1456D01*
X2281Y1449D01*
X2281Y1443D01*
X2288Y1436D01*
X2308Y1436D01*
X2386Y1519D02*
X2386Y1559D01*
X2406Y1559D01*
X2413Y1552D01*
X2413Y1539D01*
X2406Y1532D01*
X2386Y1532D01*
X2399Y1532D02*
X2413Y1519D01*
X2426Y1519D02*
X2439Y1519D01*
X2433Y1519D01*
X2433Y1559D01*
X2426Y1552D01*
X2459Y1552D02*
X2466Y1559D01*
X2479Y1559D01*
X2486Y1552D01*
X2486Y1546D01*
X2479Y1539D01*
X2486Y1532D01*
X2486Y1526D01*
X2479Y1519D01*
X2466Y1519D01*
X2459Y1526D01*
X2459Y1532D01*
X2466Y1539D01*
X2459Y1546D01*
X2459Y1552D01*
X2466Y1539D02*
X2479Y1539D01*
X1988Y1418D02*
X1988Y1458D01*
X2008Y1458D01*
X2015Y1451D01*
X2015Y1438D01*
X2008Y1431D01*
X1988Y1431D01*
X2001Y1431D02*
X2015Y1418D01*
X2028Y1418D02*
X2041Y1418D01*
X2035Y1418D01*
X2035Y1458D01*
X2028Y1451D01*
X2061Y1458D02*
X2088Y1458D01*
X2088Y1451D01*
X2061Y1425D01*
X2061Y1418D01*
X1364Y1185D02*
X1364Y1225D01*
X1384Y1225D01*
X1391Y1218D01*
X1391Y1205D01*
X1384Y1198D01*
X1364Y1198D01*
X1377Y1198D02*
X1391Y1185D01*
X1404Y1185D02*
X1417Y1185D01*
X1411Y1185D01*
X1411Y1225D01*
X1404Y1218D01*
X1437Y1218D02*
X1444Y1225D01*
X1457Y1225D01*
X1464Y1218D01*
X1464Y1212D01*
X1457Y1205D01*
X1451Y1205D01*
X1457Y1205D01*
X1464Y1198D01*
X1464Y1192D01*
X1457Y1185D01*
X1444Y1185D01*
X1437Y1192D01*
X1605Y1187D02*
X1605Y1227D01*
X1625Y1227D01*
X1632Y1220D01*
X1632Y1207D01*
X1625Y1200D01*
X1605Y1200D01*
X1618Y1200D02*
X1632Y1187D01*
X1645Y1187D02*
X1658Y1187D01*
X1652Y1187D01*
X1652Y1227D01*
X1645Y1220D01*
X1705Y1187D02*
X1678Y1187D01*
X1705Y1214D01*
X1705Y1220D01*
X1698Y1227D01*
X1685Y1227D01*
X1678Y1220D01*
X1484Y1185D02*
X1484Y1225D01*
X1504Y1225D01*
X1511Y1218D01*
X1511Y1205D01*
X1504Y1198D01*
X1484Y1198D01*
X1497Y1198D02*
X1511Y1185D01*
X1524Y1185D02*
X1537Y1185D01*
X1531Y1185D01*
X1531Y1225D01*
X1524Y1218D01*
X1557Y1185D02*
X1571Y1185D01*
X1564Y1185D01*
X1564Y1225D01*
X1557Y1218D01*
X3139Y999D02*
X3099Y999D01*
X3099Y1019D01*
X3106Y1026D01*
X3119Y1026D01*
X3126Y1019D01*
X3126Y999D01*
X3126Y1012D02*
X3139Y1026D01*
X3139Y1039D02*
X3139Y1052D01*
X3139Y1046D01*
X3099Y1046D01*
X3106Y1039D01*
X3106Y1072D02*
X3099Y1079D01*
X3099Y1092D01*
X3106Y1099D01*
X3132Y1099D01*
X3139Y1092D01*
X3139Y1079D01*
X3132Y1072D01*
X3106Y1072D01*
X2822Y989D02*
X2782Y989D01*
X2782Y1009D01*
X2789Y1016D01*
X2802Y1016D01*
X2809Y1009D01*
X2809Y989D01*
X2809Y1002D02*
X2822Y1016D01*
X2815Y1029D02*
X2822Y1036D01*
X2822Y1049D01*
X2815Y1056D01*
X2789Y1056D01*
X2782Y1049D01*
X2782Y1036D01*
X2789Y1029D01*
X2795Y1029D01*
X2802Y1036D01*
X2802Y1056D01*
X1367Y1706D02*
X1367Y1746D01*
X1387Y1746D01*
X1394Y1739D01*
X1394Y1726D01*
X1387Y1719D01*
X1367Y1719D01*
X1380Y1719D02*
X1394Y1706D01*
X1407Y1739D02*
X1414Y1746D01*
X1427Y1746D01*
X1434Y1739D01*
X1434Y1733D01*
X1427Y1726D01*
X1434Y1719D01*
X1434Y1713D01*
X1427Y1706D01*
X1414Y1706D01*
X1407Y1713D01*
X1407Y1719D01*
X1414Y1726D01*
X1407Y1733D01*
X1407Y1739D01*
X1414Y1726D02*
X1427Y1726D01*
X2697Y2328D02*
X2697Y2368D01*
X2717Y2368D01*
X2724Y2361D01*
X2724Y2348D01*
X2717Y2341D01*
X2697Y2341D01*
X2710Y2341D02*
X2724Y2328D01*
X2764Y2368D02*
X2750Y2361D01*
X2737Y2348D01*
X2737Y2335D01*
X2744Y2328D01*
X2757Y2328D01*
X2764Y2335D01*
X2764Y2341D01*
X2757Y2348D01*
X2737Y2348D01*
X2700Y2091D02*
X2700Y2117D01*
X2693Y2124D01*
X2680Y2124D01*
X2673Y2117D01*
X2673Y2091D01*
X2680Y2084D01*
X2693Y2084D01*
X2686Y2097D02*
X2700Y2084D01*
X2693Y2084D02*
X2700Y2091D01*
X2733Y2084D02*
X2733Y2124D01*
X2713Y2104D01*
X2740Y2104D01*
X3192Y2555D02*
X3185Y2562D01*
X3172Y2562D01*
X3165Y2555D01*
X3165Y2529D01*
X3172Y2522D01*
X3185Y2522D01*
X3192Y2529D01*
X3192Y2542D01*
X3178Y2542D01*
X3205Y2522D02*
X3205Y2562D01*
X3225Y2562D01*
X3232Y2555D01*
X3232Y2542D01*
X3225Y2535D01*
X3205Y2535D01*
X3272Y2555D02*
X3265Y2562D01*
X3252Y2562D01*
X3245Y2555D01*
X3245Y2529D01*
X3252Y2522D01*
X3265Y2522D01*
X3272Y2529D01*
X3272Y2542D01*
X3258Y2542D01*
X3285Y2555D02*
X3292Y2562D01*
X3305Y2562D01*
X3312Y2555D01*
X3312Y2529D01*
X3305Y2522D01*
X3292Y2522D01*
X3285Y2529D01*
X3285Y2555D01*
X3271Y770D02*
X3264Y763D01*
X3264Y750D01*
X3271Y743D01*
X3297Y743D01*
X3304Y750D01*
X3304Y763D01*
X3297Y770D01*
X3264Y803D02*
X3264Y790D01*
X3271Y783D01*
X3297Y783D01*
X3304Y790D01*
X3304Y803D01*
X3297Y810D01*
X3271Y810D01*
X3264Y803D01*
X3304Y823D02*
X3264Y823D01*
X3304Y850D01*
X3264Y850D01*
X3304Y883D02*
X3264Y883D01*
X3284Y863D01*
X3284Y890D01*
X2939Y1025D02*
X2932Y1018D01*
X2932Y1005D01*
X2939Y998D01*
X2965Y998D01*
X2972Y1005D01*
X2972Y1018D01*
X2965Y1025D01*
X2972Y1038D02*
X2972Y1051D01*
X2972Y1045D01*
X2932Y1045D01*
X2939Y1038D01*
X2932Y1071D02*
X2932Y1098D01*
X2939Y1098D01*
X2965Y1071D01*
X2972Y1071D01*
X2201Y985D02*
X2201Y1012D01*
X2214Y1025D01*
X2228Y1012D01*
X2228Y985D01*
X2228Y1005D01*
X2201Y1005D01*
X2241Y985D02*
X2254Y985D01*
X2248Y985D01*
X2248Y1025D01*
X2241Y1018D01*
X699Y2631D02*
X692Y2638D01*
X679Y2638D01*
X672Y2631D01*
X672Y2605D01*
X679Y2598D01*
X692Y2598D01*
X699Y2605D01*
X712Y2598D02*
X725Y2598D01*
X719Y2598D01*
X719Y2638D01*
X712Y2631D01*
X772Y2638D02*
X745Y2638D01*
X745Y2618D01*
X759Y2625D01*
X765Y2625D01*
X772Y2618D01*
X772Y2605D01*
X765Y2598D01*
X752Y2598D01*
X745Y2605D01*
X68Y2521D02*
X54Y2521D01*
X61Y2521D01*
X61Y2488D01*
X54Y2481D01*
X48Y2481D01*
X41Y2488D01*
X81Y2521D02*
X108Y2521D01*
X94Y2521D01*
X94Y2481D01*
X148Y2514D02*
X141Y2521D01*
X128Y2521D01*
X121Y2514D01*
X121Y2488D01*
X128Y2481D01*
X141Y2481D01*
X148Y2488D01*
X181Y2521D02*
X168Y2521D01*
X161Y2514D01*
X161Y2488D01*
X168Y2481D01*
X181Y2481D01*
X188Y2488D01*
X188Y2514D01*
X181Y2521D01*
X201Y2481D02*
X201Y2521D01*
X228Y2481D01*
X228Y2521D01*
X2489Y354D02*
X2489Y321D01*
X2496Y314D01*
X2509Y314D01*
X2516Y321D01*
X2516Y354D01*
X2529Y347D02*
X2536Y354D01*
X2549Y354D01*
X2556Y347D01*
X2556Y341D01*
X2549Y334D01*
X2542Y334D01*
X2549Y334D01*
X2556Y327D01*
X2556Y321D01*
X2549Y314D01*
X2536Y314D01*
X2529Y321D01*
X1425Y364D02*
X1425Y331D01*
X1432Y324D01*
X1445Y324D01*
X1452Y331D01*
X1452Y364D01*
X1492Y324D02*
X1465Y324D01*
X1492Y351D01*
X1492Y357D01*
X1485Y364D01*
X1472Y364D01*
X1465Y357D01*
X381Y364D02*
X381Y331D01*
X388Y324D01*
X401Y324D01*
X408Y331D01*
X408Y364D01*
X421Y324D02*
X434Y324D01*
X428Y324D01*
X428Y364D01*
X421Y357D01*
X856Y3107D02*
X896Y3107D01*
X896Y3087D01*
X889Y3080D01*
X876Y3080D01*
X869Y3087D01*
X869Y3107D01*
X896Y3067D02*
X856Y3067D01*
X869Y3054D01*
X856Y3040D01*
X896Y3040D01*
X856Y3027D02*
X896Y3027D01*
X896Y3007D01*
X889Y3000D01*
X876Y3000D01*
X869Y3007D01*
X869Y3027D01*
X869Y3014D02*
X856Y3000D01*
X636Y682D02*
X629Y689D01*
X616Y689D01*
X609Y682D01*
X609Y656D01*
X616Y649D01*
X629Y649D01*
X636Y656D01*
X649Y649D02*
X662Y649D01*
X656Y649D01*
X656Y689D01*
X649Y682D01*
X491Y466D02*
X484Y473D01*
X471Y473D01*
X464Y466D01*
X464Y440D01*
X471Y433D01*
X484Y433D01*
X491Y440D01*
X531Y433D02*
X504Y433D01*
X531Y460D01*
X531Y466D01*
X524Y473D01*
X511Y473D01*
X504Y466D01*
X1007Y596D02*
X1000Y603D01*
X987Y603D01*
X980Y596D01*
X980Y570D01*
X987Y563D01*
X1000Y563D01*
X1007Y570D01*
X1020Y596D02*
X1027Y603D01*
X1040Y603D01*
X1047Y596D01*
X1047Y590D01*
X1040Y583D01*
X1033Y583D01*
X1040Y583D01*
X1047Y576D01*
X1047Y570D01*
X1040Y563D01*
X1027Y563D01*
X1020Y570D01*
X1560Y595D02*
X1553Y602D01*
X1540Y602D01*
X1533Y595D01*
X1533Y569D01*
X1540Y562D01*
X1553Y562D01*
X1560Y569D01*
X1593Y562D02*
X1593Y602D01*
X1573Y582D01*
X1600Y582D01*
X1551Y457D02*
X1544Y464D01*
X1531Y464D01*
X1524Y457D01*
X1524Y431D01*
X1531Y424D01*
X1544Y424D01*
X1551Y431D01*
X1591Y464D02*
X1564Y464D01*
X1564Y444D01*
X1577Y451D01*
X1584Y451D01*
X1591Y444D01*
X1591Y431D01*
X1584Y424D01*
X1571Y424D01*
X1564Y431D01*
X2041Y595D02*
X2034Y602D01*
X2021Y602D01*
X2014Y595D01*
X2014Y569D01*
X2021Y562D01*
X2034Y562D01*
X2041Y569D01*
X2081Y602D02*
X2067Y595D01*
X2054Y582D01*
X2054Y569D01*
X2061Y562D01*
X2074Y562D01*
X2081Y569D01*
X2081Y575D01*
X2074Y582D01*
X2054Y582D01*
X1049Y1891D02*
X1042Y1898D01*
X1029Y1898D01*
X1022Y1891D01*
X1022Y1865D01*
X1029Y1858D01*
X1042Y1858D01*
X1049Y1865D01*
X1062Y1898D02*
X1089Y1898D01*
X1089Y1891D01*
X1062Y1865D01*
X1062Y1858D01*
X321Y2690D02*
X314Y2697D01*
X301Y2697D01*
X294Y2690D01*
X294Y2664D01*
X301Y2657D01*
X314Y2657D01*
X321Y2664D01*
X334Y2690D02*
X341Y2697D01*
X354Y2697D01*
X361Y2690D01*
X361Y2684D01*
X354Y2677D01*
X361Y2670D01*
X361Y2664D01*
X354Y2657D01*
X341Y2657D01*
X334Y2664D01*
X334Y2670D01*
X341Y2677D01*
X334Y2684D01*
X334Y2690D01*
X341Y2677D02*
X354Y2677D01*
X2565Y599D02*
X2558Y606D01*
X2545Y606D01*
X2538Y599D01*
X2538Y573D01*
X2545Y566D01*
X2558Y566D01*
X2565Y573D01*
X2578Y573D02*
X2585Y566D01*
X2598Y566D01*
X2605Y573D01*
X2605Y599D01*
X2598Y606D01*
X2585Y606D01*
X2578Y599D01*
X2578Y593D01*
X2585Y586D01*
X2605Y586D01*
X2541Y454D02*
X2534Y461D01*
X2521Y461D01*
X2514Y454D01*
X2514Y428D01*
X2521Y421D01*
X2534Y421D01*
X2541Y428D01*
X2554Y421D02*
X2567Y421D01*
X2561Y421D01*
X2561Y461D01*
X2554Y454D01*
X2587Y454D02*
X2594Y461D01*
X2607Y461D01*
X2614Y454D01*
X2614Y428D01*
X2607Y421D01*
X2594Y421D01*
X2587Y428D01*
X2587Y454D01*
X3107Y593D02*
X3100Y600D01*
X3087Y600D01*
X3080Y593D01*
X3080Y567D01*
X3087Y560D01*
X3100Y560D01*
X3107Y567D01*
X3120Y560D02*
X3133Y560D01*
X3127Y560D01*
X3127Y600D01*
X3120Y593D01*
X3153Y560D02*
X3167Y560D01*
X3160Y560D01*
X3160Y600D01*
X3153Y593D01*
X3356Y3090D02*
X3356Y3063D01*
X3369Y3050D01*
X3383Y3063D01*
X3383Y3090D01*
X3396Y3090D02*
X3396Y3050D01*
X3416Y3050D01*
X3423Y3057D01*
X3423Y3083D01*
X3416Y3090D01*
X3396Y3090D01*
X3436Y3090D02*
X3436Y3050D01*
X3456Y3050D01*
X3463Y3057D01*
X3463Y3083D01*
X3456Y3090D01*
X3436Y3090D01*
X2566Y3307D02*
X2566Y3267D01*
X2593Y3267D01*
X2606Y3307D02*
X2606Y3267D01*
X2626Y3267D01*
X2633Y3274D01*
X2633Y3280D01*
X2626Y3287D01*
X2606Y3287D01*
X2626Y3287D01*
X2633Y3294D01*
X2633Y3300D01*
X2626Y3307D01*
X2606Y3307D01*
X2874Y3296D02*
X2874Y3256D01*
X2901Y3256D01*
X2914Y3256D02*
X2914Y3296D01*
X2934Y3296D01*
X2941Y3289D01*
X2941Y3276D01*
X2934Y3269D01*
X2914Y3269D01*
X2927Y3269D02*
X2941Y3256D01*
X3186Y3307D02*
X3186Y3267D01*
X3213Y3267D01*
X3226Y3267D02*
X3226Y3294D01*
X3239Y3307D01*
X3253Y3294D01*
X3253Y3267D01*
X3253Y3287D01*
X3226Y3287D01*
X2416Y3109D02*
X2416Y3135D01*
X2409Y3142D01*
X2396Y3142D01*
X2389Y3135D01*
X2389Y3109D01*
X2396Y3102D01*
X2409Y3102D01*
X2402Y3115D02*
X2416Y3102D01*
X2409Y3102D02*
X2416Y3109D01*
X2429Y3102D02*
X2442Y3102D01*
X2436Y3102D01*
X2436Y3142D01*
X2429Y3135D01*
X2736Y3109D02*
X2736Y3135D01*
X2729Y3142D01*
X2716Y3142D01*
X2709Y3135D01*
X2709Y3109D01*
X2716Y3102D01*
X2729Y3102D01*
X2722Y3115D02*
X2736Y3102D01*
X2729Y3102D02*
X2736Y3109D01*
X2776Y3102D02*
X2749Y3102D01*
X2776Y3129D01*
X2776Y3135D01*
X2769Y3142D01*
X2756Y3142D01*
X2749Y3135D01*
X3039Y3120D02*
X3039Y3146D01*
X3032Y3153D01*
X3019Y3153D01*
X3012Y3146D01*
X3012Y3120D01*
X3019Y3113D01*
X3032Y3113D01*
X3025Y3126D02*
X3039Y3113D01*
X3032Y3113D02*
X3039Y3120D01*
X3052Y3146D02*
X3059Y3153D01*
X3072Y3153D01*
X3079Y3146D01*
X3079Y3140D01*
X3072Y3133D01*
X3065Y3133D01*
X3072Y3133D01*
X3079Y3126D01*
X3079Y3120D01*
X3072Y3113D01*
X3059Y3113D01*
X3052Y3120D01*
X986Y422D02*
X986Y462D01*
X1006Y462D01*
X1013Y455D01*
X1013Y442D01*
X1006Y435D01*
X986Y435D01*
X999Y435D02*
X1013Y422D01*
X1026Y422D02*
X1039Y422D01*
X1033Y422D01*
X1033Y462D01*
X1026Y455D01*
X1680Y1688D02*
X1640Y1688D01*
X1640Y1708D01*
X1647Y1715D01*
X1660Y1715D01*
X1667Y1708D01*
X1667Y1688D01*
X1667Y1701D02*
X1680Y1715D01*
X1680Y1755D02*
X1680Y1728D01*
X1653Y1755D01*
X1647Y1755D01*
X1640Y1748D01*
X1640Y1735D01*
X1647Y1728D01*
X2025Y425D02*
X2025Y465D01*
X2045Y465D01*
X2052Y458D01*
X2052Y445D01*
X2045Y438D01*
X2025Y438D01*
X2038Y438D02*
X2052Y425D01*
X2085Y425D02*
X2085Y465D01*
X2065Y445D01*
X2092Y445D01*
X2978Y1235D02*
X2978Y1275D01*
X2998Y1275D01*
X3005Y1268D01*
X3005Y1255D01*
X2998Y1248D01*
X2978Y1248D01*
X2991Y1248D02*
X3005Y1235D01*
X3045Y1275D02*
X3018Y1275D01*
X3018Y1255D01*
X3031Y1262D01*
X3038Y1262D01*
X3045Y1255D01*
X3045Y1242D01*
X3038Y1235D01*
X3025Y1235D01*
X3018Y1242D01*
X3083Y426D02*
X3083Y466D01*
X3103Y466D01*
X3110Y459D01*
X3110Y446D01*
X3103Y439D01*
X3083Y439D01*
X3096Y439D02*
X3110Y426D01*
X3123Y466D02*
X3150Y466D01*
X3150Y459D01*
X3123Y433D01*
X3123Y426D01*
X1194Y3306D02*
X1187Y3313D01*
X1174Y3313D01*
X1167Y3306D01*
X1167Y3300D01*
X1174Y3293D01*
X1187Y3293D01*
X1194Y3286D01*
X1194Y3280D01*
X1187Y3273D01*
X1174Y3273D01*
X1167Y3280D01*
X1207Y3313D02*
X1207Y3273D01*
X1220Y3286D01*
X1234Y3273D01*
X1234Y3313D01*
X117Y1021D02*
X144Y1021D01*
X130Y1021D01*
X130Y981D01*
X184Y1014D02*
X177Y1021D01*
X164Y1021D01*
X157Y1014D01*
X157Y1008D01*
X164Y1001D01*
X177Y1001D01*
X184Y994D01*
X184Y988D01*
X177Y981D01*
X164Y981D01*
X157Y988D01*
X1498Y3273D02*
X1498Y3300D01*
X1511Y3313D01*
X1525Y3300D01*
X1525Y3273D01*
X1525Y3293D01*
X1498Y3293D01*
X1538Y3313D02*
X1538Y3273D01*
X1558Y3273D01*
X1565Y3280D01*
X1565Y3286D01*
X1558Y3293D01*
X1538Y3293D01*
X1558Y3293D01*
X1565Y3300D01*
X1565Y3306D01*
X1558Y3313D01*
X1538Y3313D01*
X1605Y3306D02*
X1598Y3313D01*
X1585Y3313D01*
X1578Y3306D01*
X1578Y3300D01*
X1585Y3293D01*
X1598Y3293D01*
X1605Y3286D01*
X1605Y3280D01*
X1598Y3273D01*
X1585Y3273D01*
X1578Y3280D01*
X1173Y2804D02*
X1166Y2811D01*
X1153Y2811D01*
X1146Y2804D01*
X1146Y2778D01*
X1153Y2771D01*
X1166Y2771D01*
X1173Y2778D01*
X1186Y2771D02*
X1199Y2771D01*
X1193Y2771D01*
X1193Y2811D01*
X1186Y2804D01*
X1219Y2804D02*
X1226Y2811D01*
X1239Y2811D01*
X1246Y2804D01*
X1246Y2798D01*
X1239Y2791D01*
X1233Y2791D01*
X1239Y2791D01*
X1246Y2784D01*
X1246Y2778D01*
X1239Y2771D01*
X1226Y2771D01*
X1219Y2778D01*
X448Y2545D02*
X441Y2552D01*
X428Y2552D01*
X421Y2545D01*
X421Y2519D01*
X428Y2512D01*
X441Y2512D01*
X448Y2519D01*
X461Y2512D02*
X474Y2512D01*
X468Y2512D01*
X468Y2552D01*
X461Y2545D01*
X521Y2512D02*
X494Y2512D01*
X521Y2539D01*
X521Y2545D01*
X514Y2552D01*
X501Y2552D01*
X494Y2545D01*
X1384Y2766D02*
X1384Y2726D01*
X1384Y2739D01*
X1411Y2766D01*
X1391Y2746D01*
X1411Y2726D01*
X1424Y2726D02*
X1437Y2726D01*
X1431Y2726D01*
X1431Y2766D01*
X1424Y2759D01*
X1777Y3271D02*
X1777Y3311D01*
X1797Y3311D01*
X1804Y3304D01*
X1804Y3291D01*
X1797Y3284D01*
X1777Y3284D01*
X1817Y3271D02*
X1817Y3311D01*
X1837Y3311D01*
X1844Y3304D01*
X1844Y3291D01*
X1837Y3284D01*
X1817Y3284D01*
X1830Y3284D02*
X1844Y3271D01*
X1884Y3311D02*
X1857Y3311D01*
X1857Y3271D01*
X1884Y3271D01*
X1857Y3291D02*
X1870Y3291D01*
X1924Y3304D02*
X1917Y3311D01*
X1904Y3311D01*
X1897Y3304D01*
X1897Y3298D01*
X1904Y3291D01*
X1917Y3291D01*
X1924Y3284D01*
X1924Y3278D01*
X1917Y3271D01*
X1904Y3271D01*
X1897Y3278D01*
X2348Y2182D02*
X2348Y2222D01*
X2368Y2222D01*
X2375Y2215D01*
X2375Y2202D01*
X2368Y2195D01*
X2348Y2195D01*
X2361Y2195D02*
X2375Y2182D01*
X2388Y2182D02*
X2401Y2182D01*
X2395Y2182D01*
X2395Y2222D01*
X2388Y2215D01*
X2448Y2222D02*
X2421Y2222D01*
X2421Y2202D01*
X2435Y2209D01*
X2441Y2209D01*
X2448Y2202D01*
X2448Y2189D01*
X2441Y2182D01*
X2428Y2182D01*
X2421Y2189D01*
X991Y1741D02*
X991Y1781D01*
X1011Y1781D01*
X1018Y1774D01*
X1018Y1761D01*
X1011Y1754D01*
X991Y1754D01*
X1004Y1754D02*
X1018Y1741D01*
X1031Y1741D02*
X1044Y1741D01*
X1038Y1741D01*
X1038Y1781D01*
X1031Y1774D01*
X1084Y1741D02*
X1084Y1781D01*
X1064Y1761D01*
X1091Y1761D01*
X2329Y1664D02*
X2329Y1704D01*
X2349Y1704D01*
X2356Y1697D01*
X2356Y1684D01*
X2349Y1677D01*
X2329Y1677D01*
X2342Y1677D02*
X2356Y1664D01*
X2369Y1664D02*
X2382Y1664D01*
X2376Y1664D01*
X2376Y1704D01*
X2369Y1697D01*
X2429Y1704D02*
X2416Y1697D01*
X2402Y1684D01*
X2402Y1671D01*
X2409Y1664D01*
X2422Y1664D01*
X2429Y1671D01*
X2429Y1677D01*
X2422Y1684D01*
X2402Y1684D01*
X2134Y3309D02*
X2127Y3316D01*
X2114Y3316D01*
X2107Y3309D01*
X2107Y3303D01*
X2114Y3296D01*
X2127Y3296D01*
X2134Y3289D01*
X2134Y3283D01*
X2127Y3276D01*
X2114Y3276D01*
X2107Y3283D01*
X2174Y3309D02*
X2167Y3316D01*
X2154Y3316D01*
X2147Y3309D01*
X2147Y3283D01*
X2154Y3276D01*
X2167Y3276D01*
X2174Y3283D01*
X2174Y3296D01*
X2160Y3296D01*
X2214Y3309D02*
X2207Y3316D01*
X2194Y3316D01*
X2187Y3309D01*
X2187Y3283D01*
X2194Y3276D01*
X2207Y3276D01*
X2214Y3283D01*
X2214Y3296D01*
X2200Y3296D01*
X1106Y1133D02*
X1106Y1166D01*
X1099Y1173D01*
X1086Y1173D01*
X1079Y1166D01*
X1079Y1133D01*
X1046Y1173D02*
X1046Y1133D01*
X1066Y1153D01*
X1039Y1153D01*
X2350Y1822D02*
X2343Y1829D01*
X2330Y1829D01*
X2323Y1822D01*
X2323Y1796D01*
X2330Y1789D01*
X2343Y1789D01*
X2350Y1796D01*
X2363Y1789D02*
X2376Y1789D01*
X2370Y1789D01*
X2370Y1829D01*
X2363Y1822D01*
X2416Y1789D02*
X2416Y1829D01*
X2396Y1809D01*
X2423Y1809D01*
X2013Y2085D02*
X2013Y2111D01*
X2006Y2118D01*
X1993Y2118D01*
X1986Y2111D01*
X1986Y2085D01*
X1993Y2078D01*
X2006Y2078D01*
X1999Y2091D02*
X2013Y2078D01*
X2006Y2078D02*
X2013Y2085D01*
X2053Y2118D02*
X2026Y2118D01*
X2026Y2098D01*
X2039Y2105D01*
X2046Y2105D01*
X2053Y2098D01*
X2053Y2085D01*
X2046Y2078D01*
X2033Y2078D01*
X2026Y2085D01*
X1542Y1678D02*
X1502Y1678D01*
X1502Y1698D01*
X1509Y1705D01*
X1522Y1705D01*
X1529Y1698D01*
X1529Y1678D01*
X1529Y1691D02*
X1542Y1705D01*
X1509Y1718D02*
X1502Y1725D01*
X1502Y1738D01*
X1509Y1745D01*
X1516Y1745D01*
X1522Y1738D01*
X1522Y1731D01*
X1522Y1738D01*
X1529Y1745D01*
X1536Y1745D01*
X1542Y1738D01*
X1542Y1725D01*
X1536Y1718D01*
X482Y3662D02*
X482Y3628D01*
X489Y3622D01*
X502Y3622D01*
X509Y3628D01*
X509Y3662D01*
X522Y3622D02*
X535Y3622D01*
X529Y3622D01*
X529Y3662D01*
X522Y3655D01*
X555Y3655D02*
X562Y3662D01*
X575Y3662D01*
X582Y3655D01*
X582Y3628D01*
X575Y3622D01*
X562Y3622D01*
X555Y3628D01*
X555Y3655D01*
X978Y1601D02*
X978Y1641D01*
X998Y1641D01*
X1005Y1634D01*
X1005Y1621D01*
X998Y1614D01*
X978Y1614D01*
X991Y1614D02*
X1005Y1601D01*
X1045Y1601D02*
X1018Y1601D01*
X1045Y1628D01*
X1045Y1634D01*
X1038Y1641D01*
X1025Y1641D01*
X1018Y1634D01*
X1058Y1634D02*
X1065Y1641D01*
X1078Y1641D01*
X1085Y1634D01*
X1085Y1608D01*
X1078Y1601D01*
X1065Y1601D01*
X1058Y1608D01*
X1058Y1634D01*
D49*
X776Y2460D02*
X737Y2460D01*
X757Y2440D02*
X757Y2480D01*
X864Y2800D02*
X903Y2800D01*
X883Y2820D02*
X883Y2780D01*
X735Y1250D02*
X735Y1230D01*
X735Y1240D01*
X794Y1240D01*
X785Y1250D01*
X735Y1020D02*
X735Y1060D01*
X775Y1020D01*
X785Y1020D01*
X794Y1030D01*
X794Y1050D01*
X785Y1060D01*
X785Y1160D02*
X794Y1150D01*
X794Y1130D01*
X785Y1120D01*
X775Y1120D01*
X765Y1130D01*
X765Y1140D01*
X765Y1130D01*
X755Y1120D01*
X745Y1120D01*
X735Y1130D01*
X735Y1150D01*
X745Y1160D01*
D50*
X802Y3187D02*
X810Y3195D01*
X827Y3195D01*
X835Y3187D01*
X835Y3178D01*
X827Y3170D01*
X818Y3170D01*
X827Y3170D01*
X835Y3162D01*
X835Y3153D01*
X827Y3145D01*
X810Y3145D01*
X802Y3153D01*
X843Y2969D02*
X826Y2961D01*
X810Y2944D01*
X810Y2927D01*
X818Y2919D01*
X835Y2919D01*
X843Y2927D01*
X843Y2936D01*
X835Y2944D01*
X810Y2944D01*
X158Y3149D02*
X175Y3149D01*
X167Y3149D01*
X167Y3199D01*
X158Y3191D01*
X188Y2927D02*
X188Y2977D01*
X163Y2952D01*
X196Y2952D01*
X3612Y667D02*
X3612Y684D01*
X3612Y676D01*
X3562Y676D01*
X3571Y667D01*
M02*
