%FSLAX23Y23*%
%MOIN*%
G70*
G01*
G75*
G04 Layer_Color=8388736*
%ADD10R,0.063X0.071*%
%ADD11R,0.028X0.035*%
%ADD12R,0.047X0.013*%
%ADD13R,0.071X0.063*%
%ADD14R,0.022X0.057*%
%ADD15R,0.022X0.057*%
%ADD16R,0.315X0.138*%
%ADD17R,0.079X0.012*%
%ADD18R,0.130X0.060*%
%ADD19O,0.028X0.098*%
%ADD20R,0.033X0.039*%
%ADD21R,0.033X0.039*%
%ADD22C,0.060*%
%ADD23R,0.118X0.039*%
%ADD24C,0.010*%
%ADD25C,0.012*%
%ADD26C,0.015*%
%ADD27C,0.050*%
%ADD28C,0.020*%
%ADD29C,0.025*%
%ADD30R,0.049X0.049*%
%ADD31C,0.049*%
%ADD32C,0.067*%
%ADD33R,0.067X0.067*%
%ADD34R,0.100X0.100*%
%ADD35C,0.100*%
%ADD36C,0.210*%
%ADD37R,0.059X0.059*%
%ADD38C,0.059*%
%ADD39C,0.047*%
%ADD40C,0.039*%
%ADD41C,0.030*%
%ADD42C,0.029*%
%ADD43C,0.040*%
%ADD44C,0.050*%
%ADD45C,0.008*%
%ADD46C,0.010*%
%ADD47C,0.004*%
%ADD48C,0.007*%
%ADD49C,0.006*%
%ADD50C,0.008*%
%ADD51R,0.071X0.079*%
%ADD52R,0.036X0.043*%
%ADD53R,0.055X0.021*%
%ADD54R,0.079X0.071*%
%ADD55R,0.030X0.065*%
%ADD56R,0.030X0.065*%
%ADD57R,0.323X0.146*%
%ADD58R,0.087X0.020*%
%ADD59R,0.138X0.068*%
%ADD60O,0.036X0.106*%
%ADD61R,0.041X0.047*%
%ADD62R,0.041X0.047*%
%ADD63C,0.068*%
%ADD64R,0.126X0.047*%
%ADD65R,0.057X0.057*%
%ADD66C,0.057*%
%ADD67C,0.075*%
%ADD68R,0.075X0.075*%
%ADD69R,0.108X0.108*%
%ADD70C,0.108*%
%ADD71C,0.218*%
%ADD72R,0.067X0.067*%
%ADD73C,0.067*%
%ADD74C,0.055*%
%ADD75C,0.038*%
%ADD76C,0.037*%
%ADD77C,0.048*%
%ADD78C,0.058*%
D40*
X3504Y913D02*
D03*
X3504Y2095D02*
D03*
D51*
X3120Y1367D02*
D03*
X3230Y1367D02*
D03*
X928Y444D02*
D03*
X818Y444D02*
D03*
X1971Y440D02*
D03*
X1861Y440D02*
D03*
X3229Y1258D02*
D03*
X3119Y1258D02*
D03*
X3012Y443D02*
D03*
X2902Y443D02*
D03*
X1146Y1760D02*
D03*
X1256Y1760D02*
D03*
X703Y585D02*
D03*
X593Y585D02*
D03*
X703Y445D02*
D03*
X593Y445D02*
D03*
X818Y584D02*
D03*
X928Y584D02*
D03*
X1751Y580D02*
D03*
X1641Y580D02*
D03*
X1751Y440D02*
D03*
X1641Y440D02*
D03*
X1861Y580D02*
D03*
X1971Y580D02*
D03*
X1146Y1888D02*
D03*
X1256Y1888D02*
D03*
X425Y2680D02*
D03*
X535Y2680D02*
D03*
X2778Y585D02*
D03*
X2668Y585D02*
D03*
X2778Y441D02*
D03*
X2668Y441D02*
D03*
X2902Y583D02*
D03*
X3012Y583D02*
D03*
X2592Y1693D02*
D03*
X2482Y1693D02*
D03*
X2587Y1813D02*
D03*
X2477Y1813D02*
D03*
X845Y2620D02*
D03*
X955Y2620D02*
D03*
X1255Y1620D02*
D03*
X1145Y1620D02*
D03*
D52*
X326Y901D02*
D03*
X386Y901D02*
D03*
X326Y801D02*
D03*
X386Y801D02*
D03*
X326Y601D02*
D03*
X386Y601D02*
D03*
X326Y701D02*
D03*
X386Y701D02*
D03*
D53*
X2221Y908D02*
D03*
X2221Y889D02*
D03*
X2221Y869D02*
D03*
X2221Y849D02*
D03*
X2407Y908D02*
D03*
X2407Y889D02*
D03*
X2407Y869D02*
D03*
X2407Y849D02*
D03*
X2221Y830D02*
D03*
X2407Y830D02*
D03*
D54*
X1516Y1012D02*
D03*
X1516Y1122D02*
D03*
X1637Y1014D02*
D03*
X1637Y1124D02*
D03*
X1396Y1122D02*
D03*
X1396Y1012D02*
D03*
X2020Y1355D02*
D03*
X2020Y1245D02*
D03*
X2418Y1456D02*
D03*
X2418Y1346D02*
D03*
X2240Y1353D02*
D03*
X2240Y1243D02*
D03*
X1528Y1911D02*
D03*
X1528Y1801D02*
D03*
X1660Y1805D02*
D03*
X1660Y1915D02*
D03*
X2380Y2010D02*
D03*
X2380Y2120D02*
D03*
X3120Y935D02*
D03*
X3120Y825D02*
D03*
X2800Y825D02*
D03*
X2800Y935D02*
D03*
X2800Y2170D02*
D03*
X2800Y2280D02*
D03*
X1400Y1915D02*
D03*
X1400Y1805D02*
D03*
X2960Y935D02*
D03*
X2960Y825D02*
D03*
D55*
X577Y3478D02*
D03*
X540Y3478D02*
D03*
X503Y3478D02*
D03*
X503Y3562D02*
D03*
X540Y3562D02*
D03*
D56*
X577Y3562D02*
D03*
D57*
X100Y2378D02*
D03*
X100Y1431D02*
D03*
D58*
X226Y2288D02*
D03*
X226Y2268D02*
D03*
X226Y2249D02*
D03*
X226Y2229D02*
D03*
X226Y2209D02*
D03*
X226Y2190D02*
D03*
X226Y2170D02*
D03*
X226Y2150D02*
D03*
X226Y2131D02*
D03*
X226Y2111D02*
D03*
X226Y2091D02*
D03*
X226Y2072D02*
D03*
X226Y2052D02*
D03*
X226Y2032D02*
D03*
X226Y2013D02*
D03*
X226Y1993D02*
D03*
X226Y1973D02*
D03*
X226Y1953D02*
D03*
X226Y1934D02*
D03*
X226Y1914D02*
D03*
X226Y1894D02*
D03*
X226Y1875D02*
D03*
X226Y1855D02*
D03*
X226Y1835D02*
D03*
X226Y1816D02*
D03*
X226Y1796D02*
D03*
X226Y1776D02*
D03*
X226Y1757D02*
D03*
X226Y1737D02*
D03*
X226Y1717D02*
D03*
X226Y1698D02*
D03*
X226Y1678D02*
D03*
X226Y1658D02*
D03*
X226Y1639D02*
D03*
X226Y1619D02*
D03*
X226Y1599D02*
D03*
X226Y1579D02*
D03*
X226Y1560D02*
D03*
X226Y1540D02*
D03*
X226Y1520D02*
D03*
D59*
X419Y-43D02*
D03*
X1079Y258D02*
D03*
X1079Y158D02*
D03*
X1079Y58D02*
D03*
X1079Y-42D02*
D03*
X419Y57D02*
D03*
X419Y157D02*
D03*
X419Y257D02*
D03*
X1480Y-41D02*
D03*
X2140Y260D02*
D03*
X2140Y160D02*
D03*
X2140Y60D02*
D03*
X2140Y-40D02*
D03*
X1480Y59D02*
D03*
X1480Y159D02*
D03*
X1480Y259D02*
D03*
X2542Y-41D02*
D03*
X3202Y260D02*
D03*
X3202Y160D02*
D03*
X3202Y60D02*
D03*
X3202Y-40D02*
D03*
X2542Y59D02*
D03*
X2542Y159D02*
D03*
X2542Y259D02*
D03*
D60*
X1456Y1353D02*
D03*
X1506Y1353D02*
D03*
X1556Y1353D02*
D03*
X1606Y1353D02*
D03*
X1456Y1545D02*
D03*
X1506Y1545D02*
D03*
X1556Y1545D02*
D03*
X1606Y1545D02*
D03*
X2428Y2848D02*
D03*
X2478Y2848D02*
D03*
X2528Y2848D02*
D03*
X2578Y2848D02*
D03*
X2428Y3040D02*
D03*
X2478Y3040D02*
D03*
X2528Y3040D02*
D03*
X2578Y3040D02*
D03*
X2748Y2848D02*
D03*
X2798Y2848D02*
D03*
X2848Y2848D02*
D03*
X2898Y2848D02*
D03*
X2748Y3040D02*
D03*
X2798Y3040D02*
D03*
X2848Y3040D02*
D03*
X2898Y3040D02*
D03*
X3068Y2848D02*
D03*
X3118Y2848D02*
D03*
X3168Y2848D02*
D03*
X3218Y2848D02*
D03*
X3068Y3040D02*
D03*
X3118Y3040D02*
D03*
X3168Y3040D02*
D03*
X3218Y3040D02*
D03*
X2025Y1824D02*
D03*
X2075Y1824D02*
D03*
X2125Y1824D02*
D03*
X2175Y1824D02*
D03*
X2025Y2016D02*
D03*
X2075Y2016D02*
D03*
X2125Y2016D02*
D03*
X2175Y2016D02*
D03*
D61*
X2797Y2027D02*
D03*
X2760Y1933D02*
D03*
D62*
X2723Y2027D02*
D03*
D63*
X711Y821D02*
D03*
X943Y2445D02*
D03*
X872Y2769D02*
D03*
X2132Y2644D02*
D03*
X1832Y2644D02*
D03*
X1632Y2644D02*
D03*
X1432Y2644D02*
D03*
X1432Y2344D02*
D03*
X1632Y2344D02*
D03*
X1832Y2344D02*
D03*
X2132Y2344D02*
D03*
X1500Y3420D02*
D03*
X1580Y3420D02*
D03*
X3181Y3420D02*
D03*
X3261Y3420D02*
D03*
X2556Y3420D02*
D03*
X2636Y3420D02*
D03*
X2869Y3420D02*
D03*
X2949Y3420D02*
D03*
X1812Y3419D02*
D03*
X1892Y3419D02*
D03*
X2124Y3419D02*
D03*
X2204Y3419D02*
D03*
X1186Y3420D02*
D03*
X1266Y3420D02*
D03*
X3431Y2895D02*
D03*
X3431Y2815D02*
D03*
X3431Y2575D02*
D03*
X3431Y2495D02*
D03*
X881Y1516D02*
D03*
D64*
X3406Y2134D02*
D03*
X3602Y2134D02*
D03*
X3406Y2055D02*
D03*
X3602Y2055D02*
D03*
X3406Y1976D02*
D03*
X3602Y1976D02*
D03*
X3406Y1898D02*
D03*
X3602Y1898D02*
D03*
X3406Y1819D02*
D03*
X3602Y1819D02*
D03*
X3406Y1740D02*
D03*
X3602Y1740D02*
D03*
X3406Y1661D02*
D03*
X3602Y1661D02*
D03*
X3406Y1583D02*
D03*
X3602Y1583D02*
D03*
X3406Y1504D02*
D03*
X3602Y1504D02*
D03*
X3406Y1425D02*
D03*
X3602Y1425D02*
D03*
X3406Y1347D02*
D03*
X3602Y1347D02*
D03*
X3406Y1268D02*
D03*
X3602Y1268D02*
D03*
X3406Y1189D02*
D03*
X3602Y1189D02*
D03*
X3406Y1110D02*
D03*
X3602Y1110D02*
D03*
X3406Y1032D02*
D03*
X3602Y1032D02*
D03*
X3406Y953D02*
D03*
X3602Y953D02*
D03*
X3406Y874D02*
D03*
X3602Y874D02*
D03*
D65*
X659Y2460D02*
D03*
X981Y2800D02*
D03*
D66*
X581Y2460D02*
D03*
X1059Y2800D02*
D03*
D67*
X880Y1040D02*
D03*
X880Y1140D02*
D03*
D68*
X880Y1240D02*
D03*
D69*
X335Y3168D02*
D03*
D70*
X335Y2952D02*
D03*
X500Y2952D02*
D03*
X500Y3168D02*
D03*
X665Y2952D02*
D03*
X665Y3168D02*
D03*
D71*
X-0Y-0D02*
D03*
X-0Y3623D02*
D03*
X3622Y-0D02*
D03*
X3622Y3622D02*
D03*
D72*
X142Y899D02*
D03*
D73*
X142Y799D02*
D03*
X142Y699D02*
D03*
X142Y599D02*
D03*
D74*
X3543Y874D02*
D03*
X3465Y874D02*
D03*
X3543Y953D02*
D03*
X3465Y953D02*
D03*
X3543Y1032D02*
D03*
X3465Y1032D02*
D03*
X3543Y1110D02*
D03*
X3465Y1110D02*
D03*
X3543Y1189D02*
D03*
X3465Y1189D02*
D03*
X3543Y1268D02*
D03*
X3465Y1268D02*
D03*
X3543Y1347D02*
D03*
X3465Y1347D02*
D03*
X3543Y1425D02*
D03*
X3465Y1425D02*
D03*
X3543Y1504D02*
D03*
X3465Y1504D02*
D03*
X3543Y1583D02*
D03*
X3465Y1583D02*
D03*
X3543Y1661D02*
D03*
X3465Y1661D02*
D03*
X3543Y1740D02*
D03*
X3465Y1740D02*
D03*
X3543Y1819D02*
D03*
X3465Y1819D02*
D03*
X3543Y1898D02*
D03*
X3465Y1898D02*
D03*
X3543Y1976D02*
D03*
X3465Y1976D02*
D03*
X3543Y2055D02*
D03*
X3465Y2055D02*
D03*
X3543Y2134D02*
D03*
X3465Y2134D02*
D03*
D75*
X3039Y1440D02*
D03*
X1689Y2984D02*
D03*
X2669Y1692D02*
D03*
X3307Y1272D02*
D03*
X2905Y1673D02*
D03*
X3314Y1347D02*
D03*
X3309Y1148D02*
D03*
X3289Y1582D02*
D03*
X2581Y2770D02*
D03*
X3312Y2059D02*
D03*
X3286Y1741D02*
D03*
X1255Y2024D02*
D03*
X2028Y3144D02*
D03*
X2798Y2375D02*
D03*
X2823Y1833D02*
D03*
X2748Y1231D02*
D03*
X1825Y1540D02*
D03*
X3305Y1430D02*
D03*
X2986Y1757D02*
D03*
X2986Y2449D02*
D03*
X3133Y2026D02*
D03*
X146Y1702D02*
D03*
X305Y2219D02*
D03*
X412Y2229D02*
D03*
X990Y761D02*
D03*
X1409Y764D02*
D03*
X1824Y990D02*
D03*
X712Y2170D02*
D03*
X716Y1835D02*
D03*
X1103Y2136D02*
D03*
X1868Y1237D02*
D03*
X1786Y1685D02*
D03*
X1910Y1436D02*
D03*
X2268Y1120D02*
D03*
X2324Y638D02*
D03*
X2345Y216D02*
D03*
X1261Y251D02*
D03*
X1261Y457D02*
D03*
X325Y455D02*
D03*
X3488Y402D02*
D03*
X3016Y1234D02*
D03*
X3340Y2345D02*
D03*
X2767Y2711D02*
D03*
X3035Y2709D02*
D03*
X2377Y3395D02*
D03*
X2014Y3279D02*
D03*
X1746Y3287D02*
D03*
X2372Y2587D02*
D03*
X2648Y2287D02*
D03*
X3085Y3236D02*
D03*
X2767Y3234D02*
D03*
X3568Y3292D02*
D03*
X956Y3284D02*
D03*
X147Y2725D02*
D03*
X388Y2436D02*
D03*
X720Y2732D02*
D03*
X1279Y2791D02*
D03*
X1319Y3236D02*
D03*
X1672Y2846D02*
D03*
X1879Y2189D02*
D03*
X2194Y2176D02*
D03*
X2223Y1664D02*
D03*
X1791Y203D02*
D03*
X2835Y192D02*
D03*
X860Y166D02*
D03*
X469Y1163D02*
D03*
X1038Y1510D02*
D03*
X1219Y1055D02*
D03*
X8Y1183D02*
D03*
X-53Y2184D02*
D03*
X-70Y1615D02*
D03*
X2714Y1086D02*
D03*
X2457Y1237D02*
D03*
X476Y1711D02*
D03*
X740Y1478D02*
D03*
X3191Y1611D02*
D03*
X3512Y1661D02*
D03*
X3512Y1344D02*
D03*
D76*
X155Y2023D02*
D03*
X300Y2021D02*
D03*
X155Y1985D02*
D03*
X155Y1945D02*
D03*
X300Y1942D02*
D03*
X155Y1905D02*
D03*
X300Y1902D02*
D03*
X-67Y1855D02*
D03*
X-38Y1827D02*
D03*
X-13Y1800D02*
D03*
X15Y1777D02*
D03*
X43Y1754D02*
D03*
X71Y1728D02*
D03*
X100Y1706D02*
D03*
X352Y2221D02*
D03*
X381Y2199D02*
D03*
X409Y2173D02*
D03*
X436Y2146D02*
D03*
X465Y2124D02*
D03*
X519Y2072D02*
D03*
X1682Y1378D02*
D03*
X1913Y2012D02*
D03*
X1450Y2012D02*
D03*
X300Y1981D02*
D03*
X302Y1657D02*
D03*
X494Y2100D02*
D03*
D77*
X2654Y927D02*
D03*
X19Y832D02*
D03*
D78*
X2642Y1455D02*
D03*
X3519Y677D02*
D03*
X3428Y678D02*
D03*
X2605Y1493D02*
D03*
X3283Y1663D02*
D03*
X3070Y1874D02*
D03*
X375Y2294D02*
D03*
M02*
