%FSLAX23Y23*%
%MOIN*%
G70*
G01*
G75*
G04 Layer_Color=16711935*
%ADD10R,0.063X0.071*%
%ADD11R,0.028X0.035*%
%ADD12R,0.047X0.013*%
%ADD13R,0.071X0.063*%
%ADD14R,0.022X0.057*%
%ADD15R,0.022X0.057*%
%ADD16R,0.315X0.138*%
%ADD17R,0.079X0.012*%
%ADD18R,0.130X0.060*%
%ADD19O,0.028X0.098*%
%ADD20R,0.033X0.039*%
%ADD21R,0.033X0.039*%
%ADD22C,0.060*%
%ADD23R,0.118X0.039*%
%ADD24C,0.010*%
%ADD25C,0.012*%
%ADD26C,0.015*%
%ADD27C,0.050*%
%ADD28C,0.020*%
%ADD29C,0.025*%
%ADD30R,0.049X0.049*%
%ADD31C,0.049*%
%ADD32C,0.067*%
%ADD33R,0.067X0.067*%
%ADD34R,0.100X0.100*%
%ADD35C,0.100*%
%ADD36C,0.210*%
%ADD37R,0.059X0.059*%
%ADD38C,0.059*%
%ADD39C,0.047*%
%ADD40C,0.039*%
%ADD41C,0.030*%
%ADD42C,0.029*%
%ADD43C,0.040*%
%ADD44C,0.050*%
%ADD45C,0.008*%
%ADD46C,0.010*%
%ADD47C,0.004*%
%ADD48C,0.007*%
%ADD49C,0.006*%
%ADD50C,0.008*%
%ADD51R,0.071X0.079*%
%ADD52R,0.036X0.043*%
%ADD53R,0.055X0.021*%
%ADD54R,0.079X0.071*%
%ADD55R,0.030X0.065*%
%ADD56R,0.030X0.065*%
%ADD57R,0.323X0.146*%
%ADD58R,0.087X0.020*%
%ADD59R,0.138X0.068*%
%ADD60O,0.036X0.106*%
%ADD61R,0.041X0.047*%
%ADD62R,0.041X0.047*%
%ADD63C,0.068*%
%ADD64R,0.126X0.047*%
%ADD65R,0.057X0.057*%
%ADD66C,0.057*%
%ADD67C,0.075*%
%ADD68R,0.075X0.075*%
%ADD69R,0.108X0.108*%
%ADD70C,0.108*%
%ADD71C,0.218*%
%ADD72R,0.067X0.067*%
%ADD73C,0.067*%
%ADD74C,0.055*%
%ADD75C,0.038*%
%ADD76C,0.037*%
%ADD77C,0.048*%
%ADD78C,0.058*%
D40*
X3504Y913D02*
D03*
X3504Y2095D02*
D03*
D57*
X99Y1392D02*
D03*
X99Y2339D02*
D03*
D58*
X226Y1481D02*
D03*
X226Y1501D02*
D03*
X226Y1521D02*
D03*
X226Y1541D02*
D03*
X226Y1560D02*
D03*
X226Y1580D02*
D03*
X226Y1600D02*
D03*
X226Y1619D02*
D03*
X226Y1639D02*
D03*
X226Y1659D02*
D03*
X226Y1678D02*
D03*
X226Y1698D02*
D03*
X226Y1718D02*
D03*
X226Y1737D02*
D03*
X226Y1757D02*
D03*
X226Y1777D02*
D03*
X226Y1796D02*
D03*
X226Y1816D02*
D03*
X226Y1836D02*
D03*
X226Y1855D02*
D03*
X226Y1875D02*
D03*
X226Y1895D02*
D03*
X226Y1915D02*
D03*
X226Y1934D02*
D03*
X226Y1954D02*
D03*
X226Y1974D02*
D03*
X226Y1993D02*
D03*
X226Y2013D02*
D03*
X226Y2033D02*
D03*
X226Y2052D02*
D03*
X226Y2072D02*
D03*
X226Y2092D02*
D03*
X226Y2111D02*
D03*
X226Y2131D02*
D03*
X226Y2151D02*
D03*
X226Y2170D02*
D03*
X226Y2190D02*
D03*
X226Y2210D02*
D03*
X226Y2229D02*
D03*
X226Y2249D02*
D03*
D63*
X2132Y2644D02*
D03*
X1832Y2644D02*
D03*
X1632Y2644D02*
D03*
X1432Y2644D02*
D03*
X1432Y2344D02*
D03*
X1632Y2344D02*
D03*
X1832Y2344D02*
D03*
X2132Y2344D02*
D03*
X1500Y3420D02*
D03*
X1580Y3420D02*
D03*
X3181Y3420D02*
D03*
X3261Y3420D02*
D03*
X2556Y3420D02*
D03*
X2636Y3420D02*
D03*
X2869Y3420D02*
D03*
X2949Y3420D02*
D03*
X1812Y3419D02*
D03*
X1892Y3419D02*
D03*
X2124Y3419D02*
D03*
X2204Y3419D02*
D03*
X1186Y3420D02*
D03*
X1266Y3420D02*
D03*
X3431Y2895D02*
D03*
X3431Y2815D02*
D03*
X3431Y2575D02*
D03*
X3431Y2495D02*
D03*
X881Y1516D02*
D03*
D65*
X659Y2460D02*
D03*
X981Y2800D02*
D03*
D66*
X581Y2460D02*
D03*
X1059Y2800D02*
D03*
D67*
X880Y1040D02*
D03*
X880Y1140D02*
D03*
D68*
X880Y1240D02*
D03*
D69*
X335Y3168D02*
D03*
D70*
X335Y2952D02*
D03*
X500Y2952D02*
D03*
X500Y3168D02*
D03*
X665Y2952D02*
D03*
X665Y3168D02*
D03*
D71*
X-0Y-0D02*
D03*
X-0Y3623D02*
D03*
X3622Y-0D02*
D03*
X3622Y3622D02*
D03*
D72*
X142Y899D02*
D03*
D73*
X142Y799D02*
D03*
X142Y699D02*
D03*
X142Y599D02*
D03*
D74*
X3543Y874D02*
D03*
X3465Y874D02*
D03*
X3543Y953D02*
D03*
X3465Y953D02*
D03*
X3543Y1032D02*
D03*
X3465Y1032D02*
D03*
X3543Y1110D02*
D03*
X3465Y1110D02*
D03*
X3543Y1189D02*
D03*
X3465Y1189D02*
D03*
X3543Y1268D02*
D03*
X3465Y1268D02*
D03*
X3543Y1347D02*
D03*
X3465Y1347D02*
D03*
X3543Y1425D02*
D03*
X3465Y1425D02*
D03*
X3543Y1504D02*
D03*
X3465Y1504D02*
D03*
X3543Y1583D02*
D03*
X3465Y1583D02*
D03*
X3543Y1661D02*
D03*
X3465Y1661D02*
D03*
X3543Y1740D02*
D03*
X3465Y1740D02*
D03*
X3543Y1819D02*
D03*
X3465Y1819D02*
D03*
X3543Y1898D02*
D03*
X3465Y1898D02*
D03*
X3543Y1976D02*
D03*
X3465Y1976D02*
D03*
X3543Y2055D02*
D03*
X3465Y2055D02*
D03*
X3543Y2134D02*
D03*
X3465Y2134D02*
D03*
D75*
X3039Y1440D02*
D03*
X1689Y2984D02*
D03*
X2669Y1692D02*
D03*
X3307Y1272D02*
D03*
X2905Y1673D02*
D03*
X3314Y1347D02*
D03*
X3309Y1148D02*
D03*
X3289Y1582D02*
D03*
X2581Y2770D02*
D03*
X3312Y2059D02*
D03*
X3286Y1741D02*
D03*
X1255Y2024D02*
D03*
X2028Y3144D02*
D03*
X2798Y2375D02*
D03*
X2823Y1833D02*
D03*
X2748Y1231D02*
D03*
X1825Y1540D02*
D03*
X3305Y1430D02*
D03*
X2986Y1757D02*
D03*
X2986Y2449D02*
D03*
X3133Y2026D02*
D03*
X146Y1702D02*
D03*
X305Y2219D02*
D03*
X412Y2229D02*
D03*
X990Y761D02*
D03*
X1409Y764D02*
D03*
X1824Y990D02*
D03*
X712Y2170D02*
D03*
X716Y1835D02*
D03*
X1103Y2136D02*
D03*
X1868Y1237D02*
D03*
X1786Y1685D02*
D03*
X1910Y1436D02*
D03*
X2268Y1120D02*
D03*
X2324Y638D02*
D03*
X2345Y216D02*
D03*
X1261Y251D02*
D03*
X1261Y457D02*
D03*
X325Y455D02*
D03*
X3488Y402D02*
D03*
X3016Y1234D02*
D03*
X3340Y2345D02*
D03*
X2767Y2711D02*
D03*
X3035Y2709D02*
D03*
X2377Y3395D02*
D03*
X2014Y3279D02*
D03*
X1746Y3287D02*
D03*
X2372Y2587D02*
D03*
X2648Y2287D02*
D03*
X3085Y3236D02*
D03*
X2767Y3234D02*
D03*
X3568Y3292D02*
D03*
X956Y3284D02*
D03*
X147Y2725D02*
D03*
X388Y2436D02*
D03*
X720Y2732D02*
D03*
X1279Y2791D02*
D03*
X1319Y3236D02*
D03*
X1672Y2846D02*
D03*
X1879Y2189D02*
D03*
X2194Y2176D02*
D03*
X2223Y1664D02*
D03*
X1791Y203D02*
D03*
X2835Y192D02*
D03*
X860Y166D02*
D03*
X469Y1163D02*
D03*
X1038Y1510D02*
D03*
X1219Y1055D02*
D03*
X8Y1183D02*
D03*
X-53Y2184D02*
D03*
X-70Y1615D02*
D03*
X2714Y1086D02*
D03*
X2457Y1237D02*
D03*
X476Y1711D02*
D03*
X740Y1478D02*
D03*
X3191Y1611D02*
D03*
X3512Y1661D02*
D03*
X3512Y1344D02*
D03*
D76*
X155Y2023D02*
D03*
X300Y2021D02*
D03*
X155Y1985D02*
D03*
X155Y1945D02*
D03*
X300Y1942D02*
D03*
X155Y1905D02*
D03*
X300Y1902D02*
D03*
X-67Y1855D02*
D03*
X-38Y1827D02*
D03*
X-13Y1800D02*
D03*
X15Y1777D02*
D03*
X43Y1754D02*
D03*
X71Y1728D02*
D03*
X100Y1706D02*
D03*
X352Y2221D02*
D03*
X381Y2199D02*
D03*
X409Y2173D02*
D03*
X436Y2146D02*
D03*
X465Y2124D02*
D03*
X519Y2072D02*
D03*
X1682Y1378D02*
D03*
X1913Y2012D02*
D03*
X1450Y2012D02*
D03*
X300Y1981D02*
D03*
X302Y1657D02*
D03*
X494Y2100D02*
D03*
D77*
X2654Y927D02*
D03*
X19Y832D02*
D03*
D78*
X2642Y1455D02*
D03*
X3519Y677D02*
D03*
X3428Y678D02*
D03*
X2605Y1493D02*
D03*
X3283Y1663D02*
D03*
X3070Y1874D02*
D03*
X375Y2294D02*
D03*
M02*
