M48
;Layer_Color=9474304
;FILE_FORMAT=2:3
INCH,TZ
;TYPE=PLATED
T1F00S00C0.015
T2F00S00C0.022
T3F00S00C0.025
T4F00S00C0.028
T5F00S00C0.030
T6F00S00C0.031
T7F00S00C0.035
T8F00S00C0.039
T9F00S00C0.043
T10F00S00C0.052
T11F00S00C0.188
;TYPE=NON_PLATED
%
T01
X2835Y192
X3488Y402
X2345Y216
X2324Y638
X1791Y203
X1261Y251
Y457
X1409Y764
X990Y761
X860Y166
X325Y455
X469Y1163
X8Y1183
X-70Y1615
X-13Y1800
X15Y1777
X43Y1754
X71Y1728
X100Y1706
X146Y1702
X302Y1657
X476Y1711
X716Y1835
X712Y2170
X494Y2100
X465Y2124
X436Y2146
X409Y2173
X381Y2199
X352Y2221
X305Y2219
X412Y2229
X388Y2436
X519Y2072
X300Y2021
Y1981
Y1942
Y1902
X155Y1905
Y1945
Y1985
Y2023
X-53Y2184
X-67Y1855
X-38Y1827
X740Y1478
X1038Y1510
X1219Y1055
X1824Y990
X1868Y1237
X1910Y1436
X1825Y1540
X1786Y1685
X1682Y1378
X2223Y1664
X2194Y2176
X1879Y2189
X1913Y2012
X1450
X1255Y2024
X1103Y2136
X2268Y1120
X2457Y1237
X2748Y1231
X2714Y1086
X3016Y1234
X3039Y1440
X3305Y1430
X3314Y1347
X3307Y1272
X3309Y1148
X3512Y1344
Y1661
X3289Y1582
X3191Y1611
X3286Y1741
X2986Y1757
X2905Y1673
X2823Y1833
X2669Y1692
X2648Y2287
X2798Y2375
X2986Y2449
X3340Y2345
X3312Y2059
X3133Y2026
X3035Y2709
X2767Y2711
X2581Y2770
X2767Y3234
X3085Y3236
X3568Y3292
X2377Y3395
X2014Y3279
X2028Y3144
X1746Y3287
X1689Y2984
X1672Y2846
X1279Y2791
X1319Y3236
X2372Y2587
X720Y2732
X147Y2725
X956Y3284
T02
X2654Y927
X19Y832
T03
X881Y1516
T04
X3428Y678
X3519Y677
X375Y2294
X2605Y1493
X2642Y1455
X3070Y1874
X3283Y1663
T05
X581Y2460
X659
X1432Y2344
X1632
X1832
X2132
X3431Y2495
Y2575
Y2815
Y2895
X3261Y3420
X3181
X2949
X2869
X2636
X2556
X2204Y3419
X2124
X1892
X1812
X1580Y3420
X1500
X1266
X1186
X1059Y2800
X981
X1432Y2644
X1632
X1832
X2132
T06
X3465Y874
X3543
Y953
Y1032
X3465
Y953
Y1110
Y1189
X3543
Y1110
Y1268
Y1347
X3465
Y1268
Y1425
X3543
Y1504
Y1583
X3465
Y1504
Y1661
Y1740
X3543
Y1661
Y1819
Y1898
X3465
Y1819
Y1976
X3543
Y2055
Y2134
X3465
Y2055
T07
X142Y599
Y699
Y799
Y899
T08
X3504Y913
Y2095
T09
X880Y1040
Y1140
Y1240
T10
X335Y2952
X500
X665
Y3168
X500
X335
T11
X3622Y-0
X-0
X3622Y3622
X-0Y3623
M30
